{
    "asset" : {
        "generator" : "Khronos glTF Blender I/O v1.0.5",
        "version" : "2.0"
    },
    "scene" : 0,
    "scenes" : [
        {
            "name" : "Scene",
            "nodes" : [
                0,
                1,
                2
            ]
        }
    ],
    "nodes" : [
        {
            "name" : "Light",
            "rotation" : [
                0.16907575726509094,
                0.7558803558349609,
                -0.27217137813568115,
                0.570947527885437
            ],
            "translation" : [
                4.076245307922363,
                5.903861999511719,
                -1.0054539442062378
            ]
        },
        {
            "name" : "Camera",
            "rotation" : [
                0.483536034822464,
                0.33687159419059753,
                -0.20870360732078552,
                0.7804827094078064
            ],
            "translation" : [
                7.358891487121582,
                4.958309173583984,
                6.925790786743164
            ]
        },
        {
            "mesh" : 0,
            "name" : "Cube",
            "translation" : [
                0.13693523406982422,
                0.27883607149124146,
                -0.9817383289337158
            ]
        }
    ],
    "materials" : [
        {
            "doubleSided" : true,
            "name" : "ground_1",
            "normalTexture" : {
                "index" : 0,
                "texCoord" : 0
            },
            "pbrMetallicRoughness" : {
                "baseColorTexture" : {
                    "index" : 1,
                    "texCoord" : 0
                },
                "metallicFactor" : 0,
                "metallicRoughnessTexture" : {
                    "index" : 2,
                    "texCoord" : 0
                }
            }
        },
        {
            "doubleSided" : true,
            "name" : "bois",
            "normalTexture" : {
                "index" : 3,
                "texCoord" : 0
            },
            "pbrMetallicRoughness" : {
                "baseColorTexture" : {
                    "index" : 4,
                    "texCoord" : 0
                },
                "metallicFactor" : 0,
                "metallicRoughnessTexture" : {
                    "index" : 5,
                    "texCoord" : 0
                }
            }
        }
    ],
    "meshes" : [
        {
            "name" : "Cube",
            "primitives" : [
                {
                    "attributes" : {
                        "POSITION" : 0,
                        "NORMAL" : 1,
                        "TEXCOORD_0" : 2
                    },
                    "indices" : 3,
                    "material" : 0
                },
                {
                    "attributes" : {
                        "POSITION" : 4,
                        "NORMAL" : 5,
                        "TEXCOORD_0" : 6
                    },
                    "indices" : 7,
                    "material" : 1
                }
            ]
        }
    ],
    "textures" : [
        {
            "source" : 0
        },
        {
            "source" : 1
        },
        {
            "source" : 2
        },
        {
            "source" : 3
        },
        {
            "source" : 4
        },
        {
            "source" : 5
        }
    ],
    "images" : [
        {
            "mimeType" : "image/png",
            "name" : "TexturesCom_Wood_PlanksTemple03_1.8x1.8_1K_normal",
            "uri" : "TexturesCom_Wood_PlanksTemple03_1_8x1_8_1K_normal.png"
        },
        {
            "mimeType" : "image/png",
            "name" : "TexturesCom_Wood_PlanksTemple03_1.8x1.8_1K_albedo",
            "uri" : "TexturesCom_Wood_PlanksTemple03_1_8x1_8_1K_albedo.png"
        },
        {
            "mimeType" : "image/png",
            "name" : "TexturesCom_Wood_PlanksTemple03_1.8x1.8_1K_roughness",
            "uri" : "TexturesCom_Wood_PlanksTemple03_1_8x1_8_1K_roughness.png"
        },
        {
            "mimeType" : "image/png",
            "name" : "TexturesCom_OldBeams_2x2_1K_normal",
            "uri" : "TexturesCom_OldBeams_2x2_1K_normal.png"
        },
        {
            "mimeType" : "image/png",
            "name" : "TexturesCom_OldBeams_2x2_1K_albedo",
            "uri" : "TexturesCom_OldBeams_2x2_1K_albedo.png"
        },
        {
            "mimeType" : "image/png",
            "name" : "TexturesCom_OldBeams_2x2_1K_roughness",
            "uri" : "TexturesCom_OldBeams_2x2_1K_roughness.png"
        }
    ],
    "accessors" : [
        {
            "bufferView" : 0,
            "componentType" : 5126,
            "count" : 24,
            "max" : [
                0.28980550169944763,
                0.27883607149124146,
                0.3301973342895508
            ],
            "min" : [
                -1.8181331157684326,
                -0.27883607149124146,
                -0.3301973342895508
            ],
            "type" : "VEC3"
        },
        {
            "bufferView" : 1,
            "componentType" : 5126,
            "count" : 24,
            "type" : "VEC3"
        },
        {
            "bufferView" : 2,
            "componentType" : 5126,
            "count" : 24,
            "type" : "VEC2"
        },
        {
            "bufferView" : 3,
            "componentType" : 5123,
            "count" : 36,
            "type" : "SCALAR"
        },
        {
            "bufferView" : 4,
            "componentType" : 5126,
            "count" : 3338,
            "max" : [
                1.91306471824646,
                2.804344654083252,
                2.481738328933716
            ],
            "min" : [
                -2.1869351863861084,
                -0.27883607149124146,
                -0.5182616710662842
            ],
            "type" : "VEC3"
        },
        {
            "bufferView" : 5,
            "componentType" : 5126,
            "count" : 3338,
            "type" : "VEC3"
        },
        {
            "bufferView" : 6,
            "componentType" : 5126,
            "count" : 3338,
            "type" : "VEC2"
        },
        {
            "bufferView" : 7,
            "componentType" : 5123,
            "count" : 5034,
            "type" : "SCALAR"
        }
    ],
    "bufferViews" : [
        {
            "buffer" : 0,
            "byteLength" : 288,
            "byteOffset" : 0
        },
        {
            "buffer" : 0,
            "byteLength" : 288,
            "byteOffset" : 288
        },
        {
            "buffer" : 0,
            "byteLength" : 192,
            "byteOffset" : 576
        },
        {
            "buffer" : 0,
            "byteLength" : 72,
            "byteOffset" : 768
        },
        {
            "buffer" : 0,
            "byteLength" : 40056,
            "byteOffset" : 840
        },
        {
            "buffer" : 0,
            "byteLength" : 40056,
            "byteOffset" : 40896
        },
        {
            "buffer" : 0,
            "byteLength" : 26704,
            "byteOffset" : 80952
        },
        {
            "buffer" : 0,
            "byteLength" : 10068,
            "byteOffset" : 107656
        }
    ],
    "buffers" : [
        {
            "byteLength" : 117724,
            "uri" : "cabane.bin"
        }
    ]
}
