{
    "asset" : {
        "generator" : "Khronos glTF Blender I/O v1.0.5",
        "version" : "2.0"
    },
    "scene" : 0,
    "scenes" : [
        {
            "name" : "Scene",
            "nodes" : [
                0,
                1,
                2
            ]
        }
    ],
    "nodes" : [
        {
            "name" : "Light",
            "rotation" : [
                0.16907575726509094,
                0.7558803558349609,
                -0.27217137813568115,
                0.570947527885437
            ],
            "translation" : [
                4.076245307922363,
                5.903861999511719,
                -1.0054539442062378
            ]
        },
        {
            "name" : "Camera",
            "rotation" : [
                0.483536034822464,
                0.33687159419059753,
                -0.20870360732078552,
                0.7804827094078064
            ],
            "translation" : [
                7.358891487121582,
                4.958309173583984,
                6.925790786743164
            ]
        },
        {
            "mesh" : 0,
            "name" : "Plane",
            "translation" : [
                -0.01590581052005291,
                -0.002375316806137562,
                -0.00835492741316557
            ]
        }
    ],
    "materials" : [
        {
            "doubleSided" : true,
            "name" : "terrain",
            "pbrMetallicRoughness" : {
                "baseColorTexture" : {
                    "index" : 0,
                    "texCoord" : 1
                },
                "metallicFactor" : 0,
                "roughnessFactor" : 0.9090908765792847
            }
        }
    ],
    "meshes" : [
        {
            "name" : "Plane",
            "primitives" : [
                {
                    "attributes" : {
                        "POSITION" : 0,
                        "NORMAL" : 1,
                        "TEXCOORD_0" : 2,
                        "TEXCOORD_1" : 3
                    },
                    "indices" : 4,
                    "material" : 0
                }
            ]
        }
    ],
    "textures" : [
        {
            "source" : 0
        }
    ],
    "images" : [
        {
            "mimeType" : "image/png",
            "name" : "Detail",
            "uri" : "Detail.png"
        }
    ],
    "accessors" : [
        {
            "bufferView" : 0,
            "componentType" : 5126,
            "count" : 18821,
            "max" : [
                10.000001907348633,
                1.588889479637146,
                10.000001907348633
            ],
            "min" : [
                -10.000001907348633,
                -1.4111117124557495,
                -10.000001907348633
            ],
            "type" : "VEC3"
        },
        {
            "bufferView" : 1,
            "componentType" : 5126,
            "count" : 18821,
            "type" : "VEC3"
        },
        {
            "bufferView" : 2,
            "componentType" : 5126,
            "count" : 18821,
            "type" : "VEC2"
        },
        {
            "bufferView" : 3,
            "componentType" : 5126,
            "count" : 18821,
            "type" : "VEC2"
        },
        {
            "bufferView" : 4,
            "componentType" : 5123,
            "count" : 98304,
            "type" : "SCALAR"
        }
    ],
    "bufferViews" : [
        {
            "buffer" : 0,
            "byteLength" : 225852,
            "byteOffset" : 0
        },
        {
            "buffer" : 0,
            "byteLength" : 225852,
            "byteOffset" : 225852
        },
        {
            "buffer" : 0,
            "byteLength" : 150568,
            "byteOffset" : 451704
        },
        {
            "buffer" : 0,
            "byteLength" : 150568,
            "byteOffset" : 602272
        },
        {
            "buffer" : 0,
            "byteLength" : 196608,
            "byteOffset" : 752840
        }
    ],
    "buffers" : [
        {
            "byteLength" : 949448,
            "uri" : "terrain.bin"
        }
    ]
}
