{
    "asset" : {
        "generator" : "Khronos glTF Blender I/O v1.0.5",
        "version" : "2.0"
    },
    "scene" : 0,
    "scenes" : [
        {
            "name" : "Scene",
            "nodes" : [
                0
            ]
        }
    ],
    "nodes" : [
        {
            "mesh" : 0,
            "name" : "Plane"
        }
    ],
    "materials" : [
        {
            "doubleSided" : true,
            "name" : "terrain",
            "pbrMetallicRoughness" : {
                "baseColorTexture" : {
                    "index" : 0,
                    "texCoord" : 0
                },
                "metallicFactor" : 0,
                "roughnessFactor" : 0.949999988079071
            }
        }
    ],
    "meshes" : [
        {
            "name" : "Plane",
            "primitives" : [
                {
                    "attributes" : {
                        "POSITION" : 0,
                        "NORMAL" : 1,
                        "TEXCOORD_0" : 2
                    },
                    "indices" : 3,
                    "material" : 0
                }
            ]
        }
    ],
    "textures" : [
        {
            "source" : 0
        }
    ],
    "images" : [
        {
            "mimeType" : "image/jpeg",
            "name" : "TexturesCom_Groundplants0187_1_seamless_S",
            "uri" : "TexturesCom_Groundplants0187_1_seamless_S.jpg"
        }
    ],
    "accessors" : [
        {
            "bufferView" : 0,
            "componentType" : 5126,
            "count" : 16373,
            "max" : [
                10.000000953674316,
                1.588889241218567,
                10.000000953674316
            ],
            "min" : [
                -10.000000953674316,
                -1.4111114740371704,
                -10.000000953674316
            ],
            "type" : "VEC3"
        },
        {
            "bufferView" : 1,
            "componentType" : 5126,
            "count" : 16373,
            "type" : "VEC3"
        },
        {
            "bufferView" : 2,
            "componentType" : 5126,
            "count" : 16373,
            "type" : "VEC2"
        },
        {
            "bufferView" : 3,
            "componentType" : 5123,
            "count" : 24576,
            "type" : "SCALAR"
        }
    ],
    "bufferViews" : [
        {
            "buffer" : 0,
            "byteLength" : 196476,
            "byteOffset" : 0
        },
        {
            "buffer" : 0,
            "byteLength" : 196476,
            "byteOffset" : 196476
        },
        {
            "buffer" : 0,
            "byteLength" : 130984,
            "byteOffset" : 392952
        },
        {
            "buffer" : 0,
            "byteLength" : 49152,
            "byteOffset" : 523936
        }
    ],
    "buffers" : [
        {
            "byteLength" : 573088,
            "uri" : "terrain.bin"
        }
    ]
}
