{
  "accessors": [
    {
      "bufferView": 2,
      "componentType": 5126,
      "count": 3580,
      "max": [
        0.4550899863243103,
        0.81065601110458374,
        -0.21295799314975739
      ],
      "min": [
        0.22713300585746765,
        0.68049800395965576,
        -0.3300899863243103
      ],
      "type": "VEC3"
    },
    {
      "bufferView": 2,
      "byteOffset": 42960,
      "componentType": 5126,
      "count": 3580,
      "max": [
        0.99701648950576782,
        0.99999886751174927,
        0.99872785806655884
      ],
      "min": [
        -0.9994053840637207,
        -0.99988824129104614,
        -0.99978333711624146
      ],
      "type": "VEC3"
    },
    {
      "bufferView": 3,
      "componentType": 5126,
      "count": 3580,
      "max": [
        0.9999728798866272,
        0.99994438886642456,
        0.84882533550262451,
        1
      ],
      "min": [
        -0.97431445121765137,
        -0.99997860193252563,
        -0.93258559703826904,
        -1
      ],
      "type": "VEC4"
    },
    {
      "bufferView": 1,
      "componentType": 5126,
      "count": 3580,
      "max": [
        0.99023401737213135,
        0.905007004737854
      ],
      "min": [
        0.0097656296566128731,
        0.0097656296566128731
      ],
      "type": "VEC2"
    },
    {
      "bufferView": 0,
      "componentType": 5125,
      "count": 18240,
      "max": [
        3579
      ],
      "min": [
        0
      ],
      "type": "SCALAR"
    },
    {
      "bufferView": 2,
      "byteOffset": 85920,
      "componentType": 5126,
      "count": 470,
      "max": [
        0.51035398244857788,
        0.30547299981117249,
        0.97232097387313843
      ],
      "min": [
        -0.51035398244857788,
        0.22728900611400604,
        -0.42374798655509949
      ],
      "type": "VEC3"
    },
    {
      "bufferView": 2,
      "byteOffset": 91560,
      "componentType": 5126,
      "count": 470,
      "max": [
        0.99998486042022705,
        0.99999737739562988,
        1
      ],
      "min": [
        -0.99998486042022705,
        -0.99999737739562988,
        -1
      ],
      "type": "VEC3"
    },
    {
      "bufferView": 3,
      "byteOffset": 57280,
      "componentType": 5126,
      "count": 470,
      "max": [
        1,
        0.99999982118606567,
        0.94712454080581665,
        1
      ],
      "min": [
        -0.99991345405578613,
        -0.98853439092636108,
        -0.94712460041046143,
        -1
      ],
      "type": "VEC4"
    },
    {
      "bufferView": 1,
      "byteOffset": 28640,
      "componentType": 5126,
      "count": 470,
      "max": [
        0.92862600088119507,
        0.94712299108505249
      ],
      "min": [
        0.37822100520133972,
        0.0097656296566128731
      ],
      "type": "VEC2"
    },
    {
      "bufferView": 0,
      "byteOffset": 72960,
      "componentType": 5125,
      "count": 1788,
      "max": [
        469
      ],
      "min": [
        0
      ],
      "type": "SCALAR"
    },
    {
      "bufferView": 2,
      "byteOffset": 97200,
      "componentType": 5126,
      "count": 334,
      "max": [
        0.4751800000667572,
        1,
        -0.30608999729156494
      ],
      "min": [
        -0.4751800000667572,
        -0.0073969601653516293,
        -0.97232097387313843
      ],
      "type": "VEC3"
    },
    {
      "bufferView": 2,
      "byteOffset": 101208,
      "componentType": 5126,
      "count": 334,
      "max": [
        1,
        1,
        1
      ],
      "min": [
        -1,
        -1,
        -1
      ],
      "type": "VEC3"
    },
    {
      "bufferView": 3,
      "byteOffset": 64800,
      "componentType": 5126,
      "count": 334,
      "max": [
        1,
        1,
        0.77542287111282349,
        1
      ],
      "min": [
        -0.6896936297416687,
        -0.99849516153335571,
        -0.77542394399642944,
        1
      ],
      "type": "VEC4"
    },
    {
      "bufferView": 1,
      "byteOffset": 32400,
      "componentType": 5126,
      "count": 334,
      "max": [
        0.98338997364044189,
        0.92739498615264893
      ],
      "min": [
        0.0097655998542904854,
        0.0097656296566128731
      ],
      "type": "VEC2"
    },
    {
      "bufferView": 0,
      "byteOffset": 80112,
      "componentType": 5125,
      "count": 1296,
      "max": [
        333
      ],
      "min": [
        0
      ],
      "type": "SCALAR"
    },
    {
      "bufferView": 2,
      "byteOffset": 105216,
      "componentType": 5126,
      "count": 1605,
      "max": [
        0.52148300409317017,
        0.24745899438858032,
        0.9605100154876709
      ],
      "min": [
        -0.52148300409317017,
        -1,
        -0.57927399873733521
      ],
      "type": "VEC3"
    },
    {
      "bufferView": 2,
      "byteOffset": 124476,
      "componentType": 5126,
      "count": 1605,
      "max": [
        1,
        1,
        0.99655485153198242
      ],
      "min": [
        -1,
        -1,
        -1
      ],
      "type": "VEC3"
    },
    {
      "bufferView": 3,
      "byteOffset": 70144,
      "componentType": 5126,
      "count": 1605,
      "max": [
        1,
        0.94421732425689697,
        1,
        1
      ],
      "min": [
        -0.93712836503982544,
        -0.94421672821044922,
        -1,
        -1
      ],
      "type": "VEC4"
    },
    {
      "bufferView": 1,
      "byteOffset": 35072,
      "componentType": 5126,
      "count": 1605,
      "max": [
        0.86939597129821777,
        0.95228797197341919
      ],
      "min": [
        0.0097656296566128731,
        0.0097656296566128731
      ],
      "type": "VEC2"
    },
    {
      "bufferView": 0,
      "byteOffset": 85296,
      "componentType": 5125,
      "count": 7728,
      "max": [
        1604
      ],
      "min": [
        0
      ],
      "type": "SCALAR"
    }
  ],
  "asset": {
    "extras": {
      "author": "Olivercharlton11 (https://sketchfab.com/Olivercharlton11)",
      "license": "CC-BY-4.0 (http://creativecommons.org/licenses/by/4.0/)",
      "source": "https://sketchfab.com/3d-models/toilet-cf7f142c5aa8439d9b8d545993efdac4",
      "title": "Toilet"
    },
    "generator": "Sketchfab-7.51.0",
    "version": "2.0"
  },
  "bufferViews": [
    {
      "buffer": 0,
      "byteLength": 116208,
      "byteOffset": 0,
      "name": "floatBufferViews",
      "target": 34963
    },
    {
      "buffer": 0,
      "byteLength": 47912,
      "byteOffset": 116208,
      "byteStride": 8,
      "name": "floatBufferViews",
      "target": 34962
    },
    {
      "buffer": 0,
      "byteLength": 143736,
      "byteOffset": 164120,
      "byteStride": 12,
      "name": "floatBufferViews",
      "target": 34962
    },
    {
      "buffer": 0,
      "byteLength": 95824,
      "byteOffset": 307856,
      "byteStride": 16,
      "name": "floatBufferViews",
      "target": 34962
    }
  ],
  "buffers": [
    {
      "byteLength": 403680,
      "uri": "scene.bin"
    }
  ],
  "images": [
    {
      "uri": "textures/lambert1_baseColor.png"
    },
    {
      "uri": "textures/lambert1_metallicRoughness.png"
    },
    {
      "uri": "textures/lambert1_normal.png"
    }
  ],
  "materials": [
    {
      "alphaMode": "BLEND",
      "doubleSided": true,
      "name": "lambert1",
      "normalTexture": {
        "index": 2,
        "scale": 1,
        "texCoord": 0
      },
      "pbrMetallicRoughness": {
        "baseColorFactor": [
          1,
          1,
          1,
          1
        ],
        "baseColorTexture": {
          "index": 0,
          "texCoord": 0
        },
        "metallicFactor": 1,
        "metallicRoughnessTexture": {
          "index": 1,
          "texCoord": 0
        },
        "roughnessFactor": 1
      }
    }
  ],
  "meshes": [
    {
      "name": "defaultMaterial",
      "primitives": [
        {
          "attributes": {
            "NORMAL": 1,
            "POSITION": 0,
            "TANGENT": 2,
            "TEXCOORD_0": 3
          },
          "indices": 4,
          "material": 0,
          "mode": 4
        }
      ]
    },
    {
      "name": "defaultMaterial",
      "primitives": [
        {
          "attributes": {
            "NORMAL": 6,
            "POSITION": 5,
            "TANGENT": 7,
            "TEXCOORD_0": 8
          },
          "indices": 9,
          "material": 0,
          "mode": 4
        }
      ]
    },
    {
      "name": "defaultMaterial",
      "primitives": [
        {
          "attributes": {
            "NORMAL": 11,
            "POSITION": 10,
            "TANGENT": 12,
            "TEXCOORD_0": 13
          },
          "indices": 14,
          "material": 0,
          "mode": 4
        }
      ]
    },
    {
      "name": "defaultMaterial",
      "primitives": [
        {
          "attributes": {
            "NORMAL": 16,
            "POSITION": 15,
            "TANGENT": 17,
            "TEXCOORD_0": 18
          },
          "indices": 19,
          "material": 0,
          "mode": 4
        }
      ]
    }
  ],
  "nodes": [
    {
      "children": [
        1
      ],
      "name": "RootNode (gltf orientation matrix)",
      "rotation": [
        -0.70710678118654746,
        -0,
        -0,
        0.70710678118654757
      ]
    },
    {
      "children": [
        2
      ],
      "name": "RootNode (model correction matrix)"
    },
    {
      "children": [
        3,
        5,
        7,
        9
      ],
      "matrix": [
        1,
        0,
        0,
        0,
        0,
        -4.3711390063094768e-08,
        0.999999999999999,
        0,
        0,
        -0.999999999999999,
        -4.3711390063094768e-08,
        0,
        0,
        0,
        0,
        1
      ],
      "name": "Collada visual scene group"
    },
    {
      "children": [
        4
      ],
      "name": "pCylinder2"
    },
    {
      "mesh": 0,
      "name": "defaultMaterial"
    },
    {
      "children": [
        6
      ],
      "name": "pCube2"
    },
    {
      "mesh": 1,
      "name": "defaultMaterial"
    },
    {
      "children": [
        8
      ],
      "name": "pCube1"
    },
    {
      "mesh": 2,
      "name": "defaultMaterial"
    },
    {
      "children": [
        10
      ],
      "name": "pCylinder1"
    },
    {
      "mesh": 3,
      "name": "defaultMaterial"
    }
  ],
  "samplers": [
    {
      "magFilter": 9729,
      "minFilter": 9987,
      "wrapS": 10497,
      "wrapT": 10497
    }
  ],
  "scene": 0,
  "scenes": [
    {
      "name": "OSG_Scene",
      "nodes": [
        0
      ]
    }
  ],
  "textures": [
    {
      "sampler": 0,
      "source": 0
    },
    {
      "sampler": 0,
      "source": 1
    },
    {
      "sampler": 0,
      "source": 2
    }
  ]
}

