{
    "asset" : {
        "generator" : "Khronos glTF Blender I/O v1.0.5",
        "version" : "2.0"
    },
    "scene" : 0,
    "scenes" : [
        {
            "name" : "Scene",
            "nodes" : [
                0,
                1,
                8
            ]
        }
    ],
    "nodes" : [
        {
            "name" : "Light",
            "rotation" : [
                0.16907575726509094,
                0.7558803558349609,
                -0.27217137813568115,
                0.570947527885437
            ],
            "translation" : [
                4.076245307922363,
                5.903861999511719,
                -1.0054539442062378
            ]
        },
        {
            "name" : "Camera",
            "rotation" : [
                0.483536034822464,
                0.33687159419059753,
                -0.20870360732078552,
                0.7804827094078064
            ],
            "translation" : [
                7.358891487121582,
                4.958309173583984,
                6.925790786743164
            ]
        },
        {
            "mesh" : 0,
            "name" : "lamp_Material #2_0"
        },
        {
            "mesh" : 1,
            "name" : "lamp_Material #2_0.001"
        },
        {
            "children" : [
                2,
                3
            ],
            "name" : "lamp",
            "rotation" : [
                -0.7071068286895752,
                0,
                0,
                0.7071068286895752
            ]
        },
        {
            "children" : [
                4
            ],
            "name" : "RootNode"
        },
        {
            "children" : [
                5
            ],
            "name" : "21c8caa7f2e740d3ba3c2aba8c454a52.fbx",
            "rotation" : [
                0.7071068286895752,
                0,
                0,
                0.7071068286895752
            ]
        },
        {
            "children" : [
                6
            ],
            "name" : "RootNode (model correction matrix)"
        },
        {
            "children" : [
                7
            ],
            "name" : "RootNode (gltf orientation matrix)"
        }
    ],
    "materials" : [
        {
            "doubleSided" : true,
            "emissiveFactor" : [
                1,
                1,
                1
            ],
            "emissiveTexture" : {
                "index" : 0,
                "texCoord" : 0
            },
            "name" : "Material_2",
            "normalTexture" : {
                "index" : 1,
                "texCoord" : 0
            },
            "pbrMetallicRoughness" : {
                "baseColorTexture" : {
                    "index" : 2,
                    "texCoord" : 0
                },
                "metallicRoughnessTexture" : {
                    "index" : 3,
                    "texCoord" : 0
                }
            }
        },
        {
            "doubleSided" : true,
            "name" : "light",
            "pbrMetallicRoughness" : {
                "baseColorTexture" : {
                    "index" : 4,
                    "texCoord" : 0
                },
                "metallicFactor" : 0,
                "roughnessFactor" : 0.5
            }
        }
    ],
    "meshes" : [
        {
            "name" : "lamp_Material #2_0",
            "primitives" : [
                {
                    "attributes" : {
                        "POSITION" : 0,
                        "NORMAL" : 1,
                        "TEXCOORD_0" : 2
                    },
                    "indices" : 3,
                    "material" : 0
                }
            ]
        },
        {
            "name" : "lamp_Material #2_0.001",
            "primitives" : [
                {
                    "attributes" : {
                        "POSITION" : 4,
                        "NORMAL" : 5,
                        "TEXCOORD_0" : 6
                    },
                    "indices" : 7,
                    "material" : 1
                }
            ]
        }
    ],
    "textures" : [
        {
            "source" : 0
        },
        {
            "source" : 1
        },
        {
            "source" : 2
        },
        {
            "source" : 3
        },
        {
            "source" : 2
        }
    ],
    "images" : [
        {
            "bufferView" : 4,
            "mimeType" : "image/png",
            "name" : "Material_2_emissive"
        },
        {
            "bufferView" : 5,
            "mimeType" : "image/png",
            "name" : "Material_2_normal"
        },
        {
            "bufferView" : 6,
            "mimeType" : "image/png",
            "name" : "Material_2_baseColor"
        },
        {
            "bufferView" : 7,
            "mimeType" : "image/png",
            "name" : "Material_2_metallicRoughness"
        }
    ],
    "accessors" : [
        {
            "bufferView" : 0,
            "componentType" : 5126,
            "count" : 2600,
            "max" : [
                20.005292892456055,
                166,
                20.005298614501953
            ],
            "min" : [
                -20.005292892456055,
                0,
                -20.005287170410156
            ],
            "type" : "VEC3"
        },
        {
            "bufferView" : 1,
            "componentType" : 5126,
            "count" : 2600,
            "type" : "VEC3"
        },
        {
            "bufferView" : 2,
            "componentType" : 5126,
            "count" : 2600,
            "type" : "VEC2"
        },
        {
            "bufferView" : 3,
            "componentType" : 5123,
            "count" : 6042,
            "type" : "SCALAR"
        },
        {
            "bufferView" : 8,
            "componentType" : 5126,
            "count" : 183,
            "max" : [
                4.164648532867432,
                152.54872131347656,
                4.164648532867432
            ],
            "min" : [
                -4.164648532867432,
                138.7493896484375,
                -4.164648532867432
            ],
            "type" : "VEC3"
        },
        {
            "bufferView" : 9,
            "componentType" : 5126,
            "count" : 183,
            "type" : "VEC3"
        },
        {
            "bufferView" : 10,
            "componentType" : 5126,
            "count" : 183,
            "type" : "VEC2"
        },
        {
            "bufferView" : 11,
            "componentType" : 5123,
            "count" : 894,
            "type" : "SCALAR"
        }
    ],
    "bufferViews" : [
        {
            "buffer" : 0,
            "byteLength" : 31200,
            "byteOffset" : 0
        },
        {
            "buffer" : 0,
            "byteLength" : 31200,
            "byteOffset" : 31200
        },
        {
            "buffer" : 0,
            "byteLength" : 20800,
            "byteOffset" : 62400
        },
        {
            "buffer" : 0,
            "byteLength" : 12084,
            "byteOffset" : 83200
        },
        {
            "buffer" : 0,
            "byteLength" : 5436,
            "byteOffset" : 95284
        },
        {
            "buffer" : 0,
            "byteLength" : 62693,
            "byteOffset" : 100720
        },
        {
            "buffer" : 0,
            "byteLength" : 58161,
            "byteOffset" : 163416
        },
        {
            "buffer" : 0,
            "byteLength" : 46241,
            "byteOffset" : 221580
        },
        {
            "buffer" : 0,
            "byteLength" : 2196,
            "byteOffset" : 267824
        },
        {
            "buffer" : 0,
            "byteLength" : 2196,
            "byteOffset" : 270020
        },
        {
            "buffer" : 0,
            "byteLength" : 1464,
            "byteOffset" : 272216
        },
        {
            "buffer" : 0,
            "byteLength" : 1788,
            "byteOffset" : 273680
        }
    ],
    "buffers" : [
        {
            "byteLength" : 275468,
            "uri" : "data:application/octet-stream;base64,"
        }
    ]
}
