# 
# Generated by Sweet Home 3D - mar. mars 31 21:10:32 CEST 2020
# http://www.sweethome3d.com/
# 
mtllib corridor02.mtl
g room_1_1
usemtl room_1_1
v 1407.9546 0.0 792.6502
v 1995.9546 0.0 792.65015
v 1995.9546 0.0 5.6501293
v 1407.9546 0.0 5.6501293
vn 0.0 1.0 0.0
f 1//1 2//1 3//1
f 1//1 3//1 4//1
g room_1_2
usemtl room_1_1
v 1407.9546 250.0 5.6501293
v 1995.9546 250.0 5.6501293
v 1995.9546 250.0 792.65015
v 1407.9546 250.0 792.6502
vn 0.0 -1.0 0.0
f 5//2 6//2 7//2
f 5//2 7//2 8//2
g wall_2_3
usemtl room_1_1
v 1400.9546 0.0 -8.349871
v 1400.9546 0.0 -1.3498707
v 2002.9546 0.0 -1.3498707
v 2009.9546 0.0 -8.349871
f 12//2 11//2 10//2
f 12//2 10//2 9//2
g wall_2_4
usemtl room_1_1
v 1400.9546 0.0 5.6501293
f 11//2 3//2 13//2
f 11//2 13//2 10//2
g wall_2_5
usemtl room_1_1
v 1400.9546 0.0 6.6501293
v 1400.9546 7.0 6.6501293
v 1400.9546 7.0 5.6501293
v 1994.9546 0.0 6.6501293
v 1994.9546 7.0 6.6501293
v 1995.9546 7.0 5.6501293
vn -1.0 0.0 0.0
vn 0.0 0.0 1.0
vn 0.70710677 0.0 0.70710677
vn 0.0 0.0 -1.0
vn 0.0 0.0 0.0
f 13//3 14//3 15//3 16//3
f 14//4 17//4 18//4 15//4
f 17//5 3//5 19//5 18//5
f 3//6 13//6 16//6 19//6
f 3//2 17//2 14//2
f 3//2 14//2 13//2
f 16//1 15//1 18//1
f 16//1 18//1 19//1
g wall_2_6
usemtl room_1_1
v 1400.9546 250.0 -1.3498707
v 1400.9546 250.0 -8.349871
v 2009.9546 250.0 -8.349871
v 2002.9546 250.0 -1.3498707
f 9//3 10//3 20//3 21//3
f 11//5 12//5 22//5 23//5
f 12//6 9//6 21//6 22//6
g wall_2_7
usemtl room_1_1
v 1400.9546 250.0 5.6501293
f 10//3 13//3 24//3 20//3
f 13//4 3//4 6//4 24//4
f 3//5 11//5 23//5 6//5
g wall_2_8
usemtl room_1_1
f 21//1 20//1 23//1
f 21//1 23//1 22//1
g wall_2_9
usemtl room_1_1
f 20//1 24//1 6//1
f 20//1 6//1 23//1
g wall_3_10
usemtl room_1_1
v 2002.9546 0.0 799.65015
v 2009.9546 0.0 806.65015
f 26//2 25//2 11//2
f 26//2 11//2 12//2
g wall_3_11
usemtl room_1_1
f 25//2 2//2 3//2
f 25//2 3//2 11//2
g wall_3_12
usemtl room_1_1
v 1994.9546 0.0 791.65015
v 1994.9546 7.0 791.65015
v 1995.9546 7.0 792.65015
vn -0.70710677 0.0 -0.70710677
vn -0.70710677 0.0 0.70710677
vn 1.0 0.0 0.0
f 3//8 17//8 18//8 19//8
f 17//3 27//3 28//3 18//3
f 27//9 2//9 29//9 28//9
f 2//10 3//10 19//10 29//10
f 2//2 27//2 17//2
f 2//2 17//2 3//2
f 19//1 18//1 28//1
f 19//1 28//1 29//1
g wall_3_13
usemtl room_1_1
v 2009.9546 250.0 806.65015
v 2002.9546 250.0 799.65015
f 12//8 11//8 23//8 22//8
f 25//9 26//9 30//9 31//9
f 26//10 12//10 22//10 30//10
g wall_3_14
usemtl room_1_1
f 11//8 3//8 6//8 23//8
f 3//3 2//3 7//3 6//3
f 2//9 25//9 31//9 7//9
g wall_3_15
usemtl room_1_1
f 22//1 23//1 31//1
f 22//1 31//1 30//1
g wall_3_16
usemtl room_1_1
f 23//1 6//1 7//1
f 23//1 7//1 31//1
g wall_4_17
usemtl room_1_1
v 1400.9546 0.0 799.6502
v 1393.9546 0.0 806.6502
f 26//2 33//2 32//2
f 26//2 32//2 25//2
g wall_4_18
usemtl room_1_1
f 25//2 32//2 1//2
f 25//2 1//2 2//2
g wall_4_19
usemtl room_1_1
v 1408.9546 0.0 791.6502
v 1408.9546 7.0 791.6502
v 1407.9546 7.0 792.6502
vn -0.0000001 0.0 -1.0
vn 0.0000001 0.0 1.0
vn 0.70710677 0.0 -0.70710677
f 27//11 34//11 35//11 28//11
f 34//8 1//8 36//8 35//8
f 1//12 2//12 29//12 36//12
f 2//13 27//13 28//13 29//13
f 2//2 1//2 34//2
f 2//2 34//2 27//2
f 28//1 35//1 36//1
f 28//1 36//1 29//1
g wall_4_20
usemtl room_1_1
v 1393.9546 250.0 806.6502
v 1400.9546 250.0 799.6502
vn 0.0000001 0.0 1.0
f 32//8 33//8 37//8 38//8
f 33//14 26//14 30//14 37//14
f 26//13 25//13 31//13 30//13
g wall_4_21
usemtl room_1_1
vn -0.0000001 0.0 -1.0
f 2//15 1//15 8//15 7//15
f 1//8 32//8 38//8 8//8
f 25//13 2//13 7//13 31//13
g wall_4_22
usemtl room_1_1
f 31//1 38//1 37//1
f 31//1 37//1 30//1
g wall_4_23
usemtl room_1_1
f 7//1 8//1 38//1
f 7//1 38//1 31//1
g wall_5_24
usemtl room_1_1
v 1393.9546 0.0 199.65015
v 1400.9546 0.0 199.65015
f 40//2 32//2 33//2
f 40//2 33//2 39//2
g wall_5_25
usemtl room_1_1
v 1407.9546 0.0 199.65015
f 41//2 1//2 32//2
f 41//2 32//2 40//2
g wall_5_26
usemtl room_1_1
v 1407.9546 7.0 199.65015
v 1408.9546 0.0 199.65015
v 1408.9546 7.0 199.65015
f 41//3 1//3 36//3 42//3
f 1//5 34//5 35//5 36//5
f 34//10 43//10 44//10 35//10
f 43//6 41//6 42//6 44//6
f 43//2 34//2 1//2
f 43//2 1//2 41//2
f 42//1 36//1 35//1
f 42//1 35//1 44//1
g wall_5_27
usemtl room_1_1
v 1393.9546 250.0 199.65015
v 1400.9546 250.0 199.65015
f 39//3 33//3 37//3 45//3
f 33//5 32//5 38//5 37//5
f 40//6 39//6 45//6 46//6
g wall_5_28
usemtl room_1_1
v 1407.9546 250.0 199.65015
f 32//5 1//5 8//5 38//5
f 1//10 41//10 47//10 8//10
f 41//6 40//6 46//6 47//6
g wall_5_29
usemtl room_1_1
f 45//1 37//1 38//1
f 45//1 38//1 46//1
g wall_5_30
usemtl room_1_1
f 46//1 38//1 8//1
f 46//1 8//1 47//1
