{
    "asset" : {
        "generator" : "Khronos glTF Blender I/O v1.0.5",
        "version" : "2.0"
    },
    "scene" : 0,
    "scenes" : [
        {
            "name" : "Scene",
            "nodes" : [
                0,
                1,
                2,
                3,
                4
            ]
        }
    ],
    "nodes" : [
        {
            "name" : "Light",
            "rotation" : [
                0.16907575726509094,
                0.7558803558349609,
                -0.27217137813568115,
                0.570947527885437
            ],
            "translation" : [
                4.076245307922363,
                5.903861999511719,
                -1.0054539442062378
            ]
        },
        {
            "name" : "Camera",
            "rotation" : [
                0.483536034822464,
                0.33687159419059753,
                -0.20870360732078552,
                0.7804827094078064
            ],
            "translation" : [
                7.358891487121582,
                4.958309173583984,
                6.925790786743164
            ]
        },
        {
            "mesh" : 0,
            "name" : "corridor01",
            "translation" : [
                3.083617687225342,
                -1.4274020195007324,
                2.458070993423462
            ]
        },
        {
            "mesh" : 1,
            "name" : "plafond",
            "rotation" : [
                0.7071068286895752,
                0,
                0,
                0.7071067094802856
            ],
            "scale" : [
                0.10000000149011612,
                0.10000000149011612,
                0.10000000149011612
            ],
            "translation" : [
                -102.80037689208984,
                -1.6536012887954712,
                2.768406867980957
            ]
        },
        {
            "mesh" : 2,
            "name" : "corridor02",
            "rotation" : [
                0.7071068286895752,
                0,
                0,
                0.7071067094802856
            ],
            "scale" : [
                0.10000000149011612,
                0.10000000149011612,
                0.10000000149011612
            ],
            "translation" : [
                -102.33796691894531,
                -1.2978500127792358,
                2.458070993423462
            ]
        }
    ],
    "materials" : [
        {
            "doubleSided" : true,
            "name" : "ground_1",
            "normalTexture" : {
                "index" : 0,
                "texCoord" : 0
            },
            "pbrMetallicRoughness" : {
                "baseColorTexture" : {
                    "index" : 1,
                    "texCoord" : 0
                },
                "metallicFactor" : 0,
                "metallicRoughnessTexture" : {
                    "index" : 2,
                    "texCoord" : 0
                }
            }
        },
        {
            "doubleSided" : true,
            "name" : "wall_1_2",
            "pbrMetallicRoughness" : {
                "baseColorTexture" : {
                    "index" : 3,
                    "texCoord" : 0
                },
                "metallicFactor" : 0,
                "roughnessFactor" : 0.9666666388511658
            }
        },
        {
            "doubleSided" : true,
            "name" : "plafond",
            "pbrMetallicRoughness" : {
                "baseColorTexture" : {
                    "index" : 4,
                    "texCoord" : 0
                },
                "metallicFactor" : 0,
                "roughnessFactor" : 0.5
            }
        }
    ],
    "meshes" : [
        {
            "name" : "corridor01",
            "primitives" : [
                {
                    "attributes" : {
                        "POSITION" : 0,
                        "NORMAL" : 1,
                        "TEXCOORD_0" : 2
                    },
                    "indices" : 3,
                    "material" : 0
                },
                {
                    "attributes" : {
                        "POSITION" : 4,
                        "NORMAL" : 5,
                        "TEXCOORD_0" : 6
                    },
                    "indices" : 7,
                    "material" : 1
                }
            ]
        },
        {
            "name" : "corridor01.001",
            "primitives" : [
                {
                    "attributes" : {
                        "POSITION" : 8,
                        "NORMAL" : 9,
                        "TEXCOORD_0" : 10
                    },
                    "indices" : 11,
                    "material" : 2
                }
            ]
        },
        {
            "name" : "corridor02",
            "primitives" : [
                {
                    "attributes" : {
                        "POSITION" : 12,
                        "NORMAL" : 13,
                        "TEXCOORD_0" : 14
                    },
                    "indices" : 15,
                    "material" : 0
                },
                {
                    "attributes" : {
                        "POSITION" : 16,
                        "NORMAL" : 17,
                        "TEXCOORD_0" : 18
                    },
                    "indices" : 19,
                    "material" : 1
                }
            ]
        }
    ],
    "textures" : [
        {
            "source" : 0
        },
        {
            "source" : 1
        },
        {
            "source" : 2
        },
        {
            "source" : 3
        },
        {
            "source" : 4
        }
    ],
    "images" : [
        {
            "mimeType" : "image/png",
            "name" : "TexturesCom_Pavement_Slate_1K_normal",
            "uri" : "TexturesCom_Pavement_Slate_1K_normal.png"
        },
        {
            "mimeType" : "image/png",
            "name" : "TexturesCom_Pavement_Slate_1K_albedo",
            "uri" : "TexturesCom_Pavement_Slate_1K_albedo.png"
        },
        {
            "mimeType" : "image/png",
            "name" : "TexturesCom_Pavement_Slate_1K_roughness",
            "uri" : "TexturesCom_Pavement_Slate_1K_roughness.png"
        },
        {
            "mimeType" : "image/jpeg",
            "name" : "TexturesCom_ConcreteLeaking0047_1_M",
            "uri" : "TexturesCom_ConcreteLeaking0047_1_M.jpg"
        },
        {
            "mimeType" : "image/png",
            "name" : "TexturesCom_ConcreteDirty0309_11_seamless_S",
            "uri" : "TexturesCom_ConcreteDirty0309_11_seamless_S.png"
        }
    ],
    "accessors" : [
        {
            "bufferView" : 0,
            "componentType" : 5126,
            "count" : 21,
            "max" : [
                35.373870849609375,
                0.6999998688697815,
                80.6650161743164
            ],
            "min" : [
                -27.644309997558594,
                -1.3141999261279125e-05,
                -0.8349871039390564
            ],
            "type" : "VEC3"
        },
        {
            "bufferView" : 1,
            "componentType" : 5126,
            "count" : 21,
            "type" : "VEC3"
        },
        {
            "bufferView" : 2,
            "componentType" : 5126,
            "count" : 21,
            "type" : "VEC2"
        },
        {
            "bufferView" : 3,
            "componentType" : 5123,
            "count" : 33,
            "type" : "SCALAR"
        },
        {
            "bufferView" : 4,
            "componentType" : 5126,
            "count" : 285,
            "max" : [
                33.973876953125,
                25,
                80.66502380371094
            ],
            "min" : [
                -27.644309997558594,
                -1.3141999261279125e-05,
                -0.8349871039390564
            ],
            "type" : "VEC3"
        },
        {
            "bufferView" : 5,
            "componentType" : 5126,
            "count" : 285,
            "type" : "VEC3"
        },
        {
            "bufferView" : 6,
            "componentType" : 5126,
            "count" : 285,
            "type" : "VEC2"
        },
        {
            "bufferView" : 7,
            "componentType" : 5123,
            "count" : 465,
            "type" : "SCALAR"
        },
        {
            "bufferView" : 8,
            "componentType" : 5126,
            "count" : 6,
            "max" : [
                1398.5787353515625,
                792.650146484375,
                -250
            ],
            "min" : [
                791.772705078125,
                -8.349870681762695,
                -250
            ],
            "type" : "VEC3"
        },
        {
            "bufferView" : 9,
            "componentType" : 5126,
            "count" : 6,
            "type" : "VEC3"
        },
        {
            "bufferView" : 10,
            "componentType" : 5126,
            "count" : 6,
            "type" : "VEC2"
        },
        {
            "bufferView" : 11,
            "componentType" : 5123,
            "count" : 12,
            "type" : "SCALAR"
        },
        {
            "bufferView" : 12,
            "componentType" : 5126,
            "count" : 160,
            "max" : [
                2009.95458984375,
                806.6502075195312,
                0
            ],
            "min" : [
                1393.95458984375,
                -8.349870681762695,
                -250
            ],
            "type" : "VEC3"
        },
        {
            "bufferView" : 13,
            "componentType" : 5126,
            "count" : 160,
            "type" : "VEC3"
        },
        {
            "bufferView" : 14,
            "componentType" : 5126,
            "count" : 160,
            "type" : "VEC2"
        },
        {
            "bufferView" : 15,
            "componentType" : 5123,
            "count" : 312,
            "type" : "SCALAR"
        },
        {
            "bufferView" : 16,
            "componentType" : 5126,
            "count" : 16,
            "max" : [
                1995.95458984375,
                792.6502075195312,
                0
            ],
            "min" : [
                1400.95458984375,
                5.650129318237305,
                -250
            ],
            "type" : "VEC3"
        },
        {
            "bufferView" : 17,
            "componentType" : 5126,
            "count" : 16,
            "type" : "VEC3"
        },
        {
            "bufferView" : 18,
            "componentType" : 5126,
            "count" : 16,
            "type" : "VEC2"
        },
        {
            "bufferView" : 19,
            "componentType" : 5123,
            "count" : 24,
            "type" : "SCALAR"
        }
    ],
    "bufferViews" : [
        {
            "buffer" : 0,
            "byteLength" : 252,
            "byteOffset" : 0
        },
        {
            "buffer" : 0,
            "byteLength" : 252,
            "byteOffset" : 252
        },
        {
            "buffer" : 0,
            "byteLength" : 168,
            "byteOffset" : 504
        },
        {
            "buffer" : 0,
            "byteLength" : 66,
            "byteOffset" : 672
        },
        {
            "buffer" : 0,
            "byteLength" : 3420,
            "byteOffset" : 740
        },
        {
            "buffer" : 0,
            "byteLength" : 3420,
            "byteOffset" : 4160
        },
        {
            "buffer" : 0,
            "byteLength" : 2280,
            "byteOffset" : 7580
        },
        {
            "buffer" : 0,
            "byteLength" : 930,
            "byteOffset" : 9860
        },
        {
            "buffer" : 0,
            "byteLength" : 72,
            "byteOffset" : 10792
        },
        {
            "buffer" : 0,
            "byteLength" : 72,
            "byteOffset" : 10864
        },
        {
            "buffer" : 0,
            "byteLength" : 48,
            "byteOffset" : 10936
        },
        {
            "buffer" : 0,
            "byteLength" : 24,
            "byteOffset" : 10984
        },
        {
            "buffer" : 0,
            "byteLength" : 1920,
            "byteOffset" : 11008
        },
        {
            "buffer" : 0,
            "byteLength" : 1920,
            "byteOffset" : 12928
        },
        {
            "buffer" : 0,
            "byteLength" : 1280,
            "byteOffset" : 14848
        },
        {
            "buffer" : 0,
            "byteLength" : 624,
            "byteOffset" : 16128
        },
        {
            "buffer" : 0,
            "byteLength" : 192,
            "byteOffset" : 16752
        },
        {
            "buffer" : 0,
            "byteLength" : 192,
            "byteOffset" : 16944
        },
        {
            "buffer" : 0,
            "byteLength" : 128,
            "byteOffset" : 17136
        },
        {
            "buffer" : 0,
            "byteLength" : 48,
            "byteOffset" : 17264
        }
    ],
    "buffers" : [
        {
            "byteLength" : 17312,
            "uri" : "corridor.bin"
        }
    ]
}
