# 
# Generated by Sweet Home 3D - mar. mars 31 18:18:15 CEST 2020
# http://www.sweethome3d.com/
# 
mtllib corridor01.mtl
g ground_1
usemtl ground_1
v 791.7727 0.0 -8.349871
v 791.7727 0.0 -1.3498707
v 1407.9546 0.0 -8.349871
v 1407.9546 0.0 206.65015
v 1007.9545 0.0 206.65018
v 993.9545 0.0 792.65015
v 791.7727 0.0 792.65015
v 791.7727 0.0 806.65015
v 1407.9546 0.0 806.65015
vn 0.0 1.0 0.0
vn 0.0 0.0 0.0
f 1//1 2//1 3//1
f 7//1 8//1 9//1
f 6//1 7//1 9//1
f 6//1 9//1 4//1
f 6//1 4//1 5//1
g wall_1_2
usemtl wall_1_2
v 798.7727 0.0 -1.3498707
v 798.7727 0.0 799.65015
v 805.7727 0.0 792.65015
v 805.7727 0.0 -1.3498707
vn 0.0 -1.0 0.0
f 13//3 12//3 11//3
f 13//3 11//3 10//3
g wall_1_3
usemtl wall_1_2
f 10//3 11//3 8//3
f 10//3 8//3 2//3
g wall_1_4
usemtl wall_1_2
v 805.7727 7.0 792.65015
v 805.7727 7.0 -1.3498707
v 806.7727 0.0 791.65015
v 806.7727 7.0 791.65015
v 806.7727 0.0 -1.3498707
v 806.7727 7.0 -1.3498707
vn -1.0 0.0 0.0
vn 0.70710677 0.0 0.70710677
vn 1.0 0.0 0.0
vn 0.0 0.0 -1.0
f 13//4 12//4 14//4 15//4
f 12//5 16//5 17//5 14//5
f 16//6 18//6 19//6 17//6
f 18//7 13//7 15//7 19//7
f 18//3 16//3 12//3
f 18//3 12//3 13//3
f 15//1 14//1 17//1
f 15//1 17//1 19//1
g wall_1_5
usemtl wall_1_2
v 805.7727 250.0 792.65015
v 798.7727 250.0 799.65015
v 805.7727 250.0 -1.3498707
v 798.7727 250.0 -1.3498707
f 11//5 12//5 20//5 21//5
f 12//6 13//6 22//6 20//6
f 13//7 10//7 23//7 22//7
g wall_1_6
usemtl wall_1_2
v 791.7727 250.0 806.65015
v 791.7727 250.0 -1.3498707
f 2//4 8//4 24//4 25//4
f 8//5 11//5 21//5 24//5
f 10//7 2//7 25//7 23//7
g wall_1_7
usemtl wall_1_2
f 23//1 21//1 20//1
f 23//1 20//1 22//1
g wall_1_8
usemtl wall_1_2
f 25//1 24//1 21//1
f 25//1 21//1 23//1
g wall_2_9
usemtl wall_1_2
v 1000.9545 0.0 799.65015
f 6//3 26//3 11//3
f 6//3 11//3 12//3
g wall_2_10
usemtl wall_1_2
v 1007.9545 0.0 806.65015
f 26//3 27//3 8//3
f 26//3 8//3 11//3
g wall_2_11
usemtl wall_1_2
v 993.9545 7.0 792.65015
v 992.9545 0.0 791.65015
v 992.9545 7.0 791.65015
vn -0.70710677 0.0 -0.70710677
vn 0.0 0.0 1.0
vn 0.70710677 0.0 -0.70710677
f 16//8 12//8 14//8 17//8
f 12//9 6//9 28//9 14//9
f 6//10 29//10 30//10 28//10
f 29//7 16//7 17//7 30//7
f 29//3 6//3 12//3
f 29//3 12//3 16//3
f 17//1 14//1 28//1
f 17//1 28//1 30//1
g wall_2_12
usemtl wall_1_2
v 993.9545 250.0 792.65015
v 1000.9545 250.0 799.65015
f 12//8 11//8 21//8 20//8
f 26//10 6//10 31//10 32//10
f 6//7 12//7 20//7 31//7
g wall_2_13
usemtl wall_1_2
v 1007.9545 250.0 806.65015
f 11//8 8//8 24//8 21//8
f 8//9 27//9 33//9 24//9
f 27//10 26//10 32//10 33//10
g wall_2_14
usemtl wall_1_2
f 20//1 21//1 32//1
f 20//1 32//1 31//1
g wall_2_15
usemtl wall_1_2
f 21//1 24//1 33//1
f 21//1 33//1 32//1
g wall_3_16
usemtl wall_1_2
v 993.9545 0.0 192.65015
v 1000.9545 0.0 199.65015
f 35//3 26//3 6//3
f 35//3 6//3 34//3
g wall_3_17
usemtl wall_1_2
v 1007.9545 0.0 206.65015
f 36//3 27//3 26//3
f 36//3 26//3 35//3
g wall_3_18
usemtl wall_1_2
v 992.9545 0.0 191.65015
v 992.9545 7.0 191.65015
v 993.9545 7.0 192.65015
vn -0.70710677 0.0 0.70710677
f 37//4 29//4 30//4 38//4
f 29//11 6//11 28//11 30//11
f 6//6 34//6 39//6 28//6
f 34//10 37//10 38//10 39//10
f 34//3 6//3 29//3
f 34//3 29//3 37//3
f 38//1 30//1 28//1
f 38//1 28//1 39//1
g wall_3_19
usemtl wall_1_2
v 993.9545 250.0 192.65015
v 1000.9545 250.0 199.65015
f 34//4 6//4 31//4 40//4
f 6//11 26//11 32//11 31//11
f 35//10 34//10 40//10 41//10
g wall_3_20
usemtl wall_1_2
v 1007.9545 250.0 206.65015
f 26//11 27//11 33//11 32//11
f 27//6 36//6 42//6 33//6
f 36//10 35//10 41//10 42//10
g wall_3_21
usemtl wall_1_2
f 40//1 31//1 32//1
f 40//1 32//1 41//1
g wall_3_22
usemtl wall_1_2
f 41//1 32//1 33//1
f 41//1 33//1 42//1
g wall_4_23
usemtl wall_1_2
v 1400.9546 0.0 199.65015
v 1393.9546 0.0 192.65015
f 44//3 43//3 35//3
f 44//3 35//3 34//3
g wall_4_24
usemtl wall_1_2
f 43//3 4//3 36//3
f 43//3 36//3 35//3
g wall_4_25
usemtl wall_1_2
v 1393.9546 7.0 192.65015
v 1392.9546 0.0 191.65015
v 1392.9546 7.0 191.65015
f 37//11 34//11 39//11 38//11
f 34//9 44//9 45//9 39//9
f 44//10 46//10 47//10 45//10
f 46//7 37//7 38//7 47//7
f 46//3 44//3 34//3
f 46//3 34//3 37//3
f 38//1 39//1 45//1
f 38//1 45//1 47//1
g wall_4_26
usemtl wall_1_2
v 1393.9546 250.0 192.65015
v 1400.9546 250.0 199.65015
f 34//11 35//11 41//11 40//11
f 43//10 44//10 48//10 49//10
f 44//7 34//7 40//7 48//7
g wall_4_27
usemtl wall_1_2
v 1407.9546 250.0 206.65015
f 35//11 36//11 42//11 41//11
f 36//9 4//9 50//9 42//9
f 4//10 43//10 49//10 50//10
g wall_4_28
usemtl wall_1_2
f 40//1 41//1 49//1
f 40//1 49//1 48//1
g wall_4_29
usemtl wall_1_2
f 41//1 42//1 50//1
f 41//1 50//1 49//1
g wall_5_30
usemtl wall_1_2
v 1400.9546 0.0 -1.3498707
v 1393.9546 0.0 5.6501293
f 43//3 44//3 52//3
f 43//3 52//3 51//3
g wall_5_31
usemtl wall_1_2
f 4//3 43//3 51//3
f 4//3 51//3 3//3
g wall_5_32
usemtl wall_1_2
v 1392.9546 0.0 6.6501293
v 1392.9546 7.0 6.6501293
v 1393.9546 7.0 5.6501293
f 52//8 53//8 54//8 55//8
f 53//4 46//4 47//4 54//4
f 46//11 44//11 45//11 47//11
f 44//6 52//6 55//6 45//6
f 44//3 46//3 53//3
f 44//3 53//3 52//3
f 55//1 54//1 47//1
f 55//1 47//1 45//1
g wall_5_33
usemtl wall_1_2
v 1393.9546 250.0 5.6501293
v 1400.9546 250.0 -1.3498707
f 51//8 52//8 56//8 57//8
f 52//4 44//4 48//4 56//4
f 44//11 43//11 49//11 48//11
g wall_5_34
usemtl wall_1_2
v 1407.9546 250.0 -8.349871
f 3//8 51//8 57//8 58//8
f 43//11 4//11 50//11 49//11
f 4//6 3//6 58//6 50//6
g wall_5_35
usemtl wall_1_2
f 57//1 56//1 48//1
f 57//1 48//1 49//1
g wall_5_36
usemtl wall_1_2
f 58//1 57//1 49//1
f 58//1 49//1 50//1
g wall_6_37
usemtl wall_1_2
v 791.9546 0.0 -1.3498707
v 791.9546 0.0 5.6501293
f 51//3 52//3 60//3
f 51//3 60//3 59//3
g wall_6_38
usemtl wall_1_2
v 791.9546 0.0 -8.349871
f 3//3 51//3 59//3
f 3//3 59//3 61//3
g wall_6_39
usemtl wall_1_2
v 791.9546 0.0 6.6501293
v 791.9546 7.0 6.6501293
v 791.9546 7.0 5.6501293
f 60//4 62//4 63//4 64//4
f 62//9 53//9 54//9 63//9
f 53//5 52//5 55//5 54//5
f 52//7 60//7 64//7 55//7
f 52//3 53//3 62//3
f 52//3 62//3 60//3
f 64//1 63//1 54//1
f 64//1 54//1 55//1
g wall_6_40
usemtl wall_1_2
v 791.9546 250.0 5.6501293
v 791.9546 250.0 -1.3498707
f 59//4 60//4 65//4 66//4
f 60//9 52//9 56//9 65//9
f 52//5 51//5 57//5 56//5
g wall_6_41
usemtl wall_1_2
v 791.9546 250.0 -8.349871
f 61//4 59//4 66//4 67//4
f 51//5 3//5 58//5 57//5
f 3//7 61//7 67//7 58//7
g wall_6_42
usemtl wall_1_2
f 66//1 65//1 56//1
f 66//1 56//1 57//1
g wall_6_43
usemtl wall_1_2
f 67//1 66//1 57//1
f 67//1 57//1 58//1
g room_7_44
usemtl wall_1_2
f 4//1 3//1 2//1
f 5//1 4//1 2//1
f 5//1 2//1 7//1
f 5//1 7//1 6//1
g room_7_45
usemtl wall_1_2
v 1007.9545 250.0 206.65018
v 791.7727 250.0 792.65015
f 31//3 69//3 25//3
f 68//3 31//3 25//3
f 68//3 25//3 58//3
f 68//3 58//3 50//3
