{
    "asset" : {
        "generator" : "Khronos glTF Blender I/O v1.0.5",
        "version" : "2.0"
    },
    "scene" : 0,
    "scenes" : [
        {
            "name" : "Scene",
            "nodes" : [
                0
            ]
        }
    ],
    "nodes" : [
        {
            "mesh" : 0,
            "name" : "Piano Bench",
            "rotation" : [
                0,
                0.7071067690849304,
                0,
                0.7071067690849304
            ]
        }
    ],
    "materials" : [
        {
            "doubleSided" : true,
            "name" : "Piano Bench",
            "pbrMetallicRoughness" : {
                "baseColorTexture" : {
                    "index" : 0,
                    "texCoord" : 0
                },
                "metallicFactor" : 0,
                "roughnessFactor" : 0.5
            }
        }
    ],
    "meshes" : [
        {
            "name" : "Piano Bench",
            "primitives" : [
                {
                    "attributes" : {
                        "POSITION" : 0,
                        "NORMAL" : 1,
                        "TEXCOORD_0" : 2
                    },
                    "indices" : 3,
                    "material" : 0
                }
            ]
        }
    ],
    "textures" : [
        {
            "source" : 0
        }
    ],
    "images" : [
        {
            "mimeType" : "image/png",
            "name" : "Piano Bench COL.png",
            "uri" : "Piano Bench COL_png.png"
        }
    ],
    "accessors" : [
        {
            "bufferView" : 0,
            "componentType" : 5126,
            "count" : 857,
            "max" : [
                0.2275928407907486,
                0.5894094705581665,
                0.5967398285865784
            ],
            "min" : [
                -0.2275928407907486,
                -0.0012063318863511086,
                -0.5967398285865784
            ],
            "type" : "VEC3"
        },
        {
            "bufferView" : 1,
            "componentType" : 5126,
            "count" : 857,
            "type" : "VEC3"
        },
        {
            "bufferView" : 2,
            "componentType" : 5126,
            "count" : 857,
            "type" : "VEC2"
        },
        {
            "bufferView" : 3,
            "componentType" : 5123,
            "count" : 1344,
            "type" : "SCALAR"
        }
    ],
    "bufferViews" : [
        {
            "buffer" : 0,
            "byteLength" : 10284,
            "byteOffset" : 0
        },
        {
            "buffer" : 0,
            "byteLength" : 10284,
            "byteOffset" : 10284
        },
        {
            "buffer" : 0,
            "byteLength" : 6856,
            "byteOffset" : 20568
        },
        {
            "buffer" : 0,
            "byteLength" : 2688,
            "byteOffset" : 27424
        }
    ],
    "buffers" : [
        {
            "byteLength" : 30112,
            "uri" : "Piano_Bench.bin"
        }
    ]
}
