{
    "asset" : {
        "generator" : "Khronos glTF Blender I/O v1.0.5",
        "version" : "2.0"
    },
    "scene" : 0,
    "scenes" : [
        {
            "name" : "Scene",
            "nodes" : [
                0,
                1,
                2,
                3
            ]
        }
    ],
    "nodes" : [
        {
            "name" : "Light",
            "rotation" : [
                0.16907575726509094,
                0.7558803558349609,
                -0.27217137813568115,
                0.570947527885437
            ],
            "translation" : [
                4.076245307922363,
                5.903861999511719,
                -1.0054539442062378
            ]
        },
        {
            "name" : "Camera",
            "rotation" : [
                0.483536034822464,
                0.33687159419059753,
                -0.20870360732078552,
                0.7804827094078064
            ],
            "translation" : [
                7.358891487121582,
                4.958309173583984,
                6.925790786743164
            ]
        },
        {
            "mesh" : 0,
            "name" : "piece01"
        },
        {
            "mesh" : 1,
            "name" : "piece02"
        }
    ],
    "materials" : [
        {
            "doubleSided" : true,
            "name" : "white",
            "pbrMetallicRoughness" : {
                "baseColorFactor" : [
                    0.2501414716243744,
                    0.3029925227165222,
                    1,
                    1
                ],
                "metallicFactor" : 0,
                "roughnessFactor" : 0.7418010830879211
            }
        },
        {
            "doubleSided" : true,
            "name" : "room_1_2",
            "pbrMetallicRoughness" : {
                "baseColorFactor" : [
                    0.18019326031208038,
                    0.20445701479911804,
                    1,
                    1
                ],
                "metallicFactor" : 0,
                "roughnessFactor" : 0.9666666388511658
            }
        },
        {
            "doubleSided" : true,
            "name" : "room_1_1",
            "pbrMetallicRoughness" : {
                "baseColorFactor" : [
                    1,
                    1,
                    1,
                    1
                ],
                "metallicFactor" : 0,
                "roughnessFactor" : 0.9666666388511658
            }
        }
    ],
    "meshes" : [
        {
            "name" : "piece01",
            "primitives" : [
                {
                    "attributes" : {
                        "POSITION" : 0,
                        "NORMAL" : 1,
                        "TEXCOORD_0" : 2
                    },
                    "indices" : 3,
                    "material" : 0
                },
                {
                    "attributes" : {
                        "POSITION" : 4,
                        "NORMAL" : 5,
                        "TEXCOORD_0" : 6
                    },
                    "indices" : 7,
                    "material" : 1
                }
            ]
        },
        {
            "name" : "piece02",
            "primitives" : [
                {
                    "attributes" : {
                        "POSITION" : 8,
                        "NORMAL" : 9,
                        "TEXCOORD_0" : 10
                    },
                    "indices" : 11,
                    "material" : 2
                }
            ]
        }
    ],
    "accessors" : [
        {
            "bufferView" : 0,
            "componentType" : 5126,
            "count" : 156,
            "max" : [
                99.2272720336914,
                23.84999656677246,
                34.283103942871094
            ],
            "min" : [
                64.20684051513672,
                2.9999966621398926,
                8.051046371459961
            ],
            "type" : "VEC3"
        },
        {
            "bufferView" : 1,
            "componentType" : 5126,
            "count" : 156,
            "type" : "VEC3"
        },
        {
            "bufferView" : 2,
            "componentType" : 5126,
            "count" : 156,
            "type" : "VEC2"
        },
        {
            "bufferView" : 3,
            "componentType" : 5123,
            "count" : 168,
            "type" : "SCALAR"
        },
        {
            "bufferView" : 4,
            "componentType" : 5126,
            "count" : 521,
            "max" : [
                124.05000305175781,
                27.999996185302734,
                69.93773651123047
            ],
            "min" : [
                42.150001525878906,
                2.9999868869781494,
                8.137739181518555
            ],
            "type" : "VEC3"
        },
        {
            "bufferView" : 5,
            "componentType" : 5126,
            "count" : 521,
            "type" : "VEC3"
        },
        {
            "bufferView" : 6,
            "componentType" : 5126,
            "count" : 521,
            "type" : "VEC2"
        },
        {
            "bufferView" : 7,
            "componentType" : 5123,
            "count" : 654,
            "type" : "SCALAR"
        },
        {
            "bufferView" : 8,
            "componentType" : 5126,
            "count" : 309,
            "max" : [
                228.80201721191406,
                22.212398529052734,
                74.66021728515625
            ],
            "min" : [
                146.9020233154297,
                -3.7441940307617188,
                53.560211181640625
            ],
            "type" : "VEC3"
        },
        {
            "bufferView" : 9,
            "componentType" : 5126,
            "count" : 309,
            "type" : "VEC3"
        },
        {
            "bufferView" : 10,
            "componentType" : 5126,
            "count" : 309,
            "type" : "VEC2"
        },
        {
            "bufferView" : 11,
            "componentType" : 5123,
            "count" : 390,
            "type" : "SCALAR"
        }
    ],
    "bufferViews" : [
        {
            "buffer" : 0,
            "byteLength" : 1872,
            "byteOffset" : 0
        },
        {
            "buffer" : 0,
            "byteLength" : 1872,
            "byteOffset" : 1872
        },
        {
            "buffer" : 0,
            "byteLength" : 1248,
            "byteOffset" : 3744
        },
        {
            "buffer" : 0,
            "byteLength" : 336,
            "byteOffset" : 4992
        },
        {
            "buffer" : 0,
            "byteLength" : 6252,
            "byteOffset" : 5328
        },
        {
            "buffer" : 0,
            "byteLength" : 6252,
            "byteOffset" : 11580
        },
        {
            "buffer" : 0,
            "byteLength" : 4168,
            "byteOffset" : 17832
        },
        {
            "buffer" : 0,
            "byteLength" : 1308,
            "byteOffset" : 22000
        },
        {
            "buffer" : 0,
            "byteLength" : 3708,
            "byteOffset" : 23308
        },
        {
            "buffer" : 0,
            "byteLength" : 3708,
            "byteOffset" : 27016
        },
        {
            "buffer" : 0,
            "byteLength" : 2472,
            "byteOffset" : 30724
        },
        {
            "buffer" : 0,
            "byteLength" : 780,
            "byteOffset" : 33196
        }
    ],
    "buffers" : [
        {
            "byteLength" : 33976,
            "uri" : "piece01.bin"
        }
    ]
}
