{
    "asset" : {
        "generator" : "Khronos glTF Blender I/O v1.0.5",
        "version" : "2.0"
    },
    "scene" : 0,
    "scenes" : [
        {
            "extras" : {
                "glTF2ExportSettings" : {
                    "export_apply" : 1,
                    "export_extras" : 1,
                    "export_format" : "GLTF_SEPARATE",
                    "export_selected" : 1
                }
            },
            "name" : "Scene",
            "nodes" : [
                0,
                1,
                2,
                3,
                4
            ]
        }
    ],
    "nodes" : [
        {
            "name" : "Light",
            "rotation" : [
                0.16907575726509094,
                0.7558803558349609,
                -0.27217137813568115,
                0.570947527885437
            ],
            "translation" : [
                4.076245307922363,
                5.903861999511719,
                -1.0054539442062378
            ]
        },
        {
            "name" : "Camera",
            "rotation" : [
                0.483536034822464,
                0.33687159419059753,
                -0.20870360732078552,
                0.7804827094078064
            ],
            "translation" : [
                7.358891487121582,
                4.958309173583984,
                6.925790786743164
            ]
        },
        {
            "mesh" : 0,
            "name" : "loft01",
            "rotation" : [
                0.7071068286895752,
                0,
                0,
                0.7071067094802856
            ],
            "scale" : [
                0.10000000149011612,
                0.10000000149011612,
                0.10000000149011612
            ]
        },
        {
            "mesh" : 1,
            "name" : "Cube"
        },
        {
            "mesh" : 2,
            "name" : "ground",
            "rotation" : [
                0.7071068286895752,
                0,
                0,
                0.7071067094802856
            ],
            "scale" : [
                0.10000000149011612,
                0.10000000149011612,
                0.10000000149011612
            ]
        }
    ],
    "materials" : [
        {
            "doubleSided" : true,
            "name" : "ground_1",
            "normalTexture" : {
                "index" : 0,
                "texCoord" : 0
            },
            "pbrMetallicRoughness" : {
                "baseColorTexture" : {
                    "index" : 1,
                    "texCoord" : 0
                },
                "metallicFactor" : 0,
                "metallicRoughnessTexture" : {
                    "index" : 2,
                    "texCoord" : 0
                }
            }
        },
        {
            "doubleSided" : true,
            "name" : "wall_1_2",
            "normalTexture" : {
                "index" : 3,
                "texCoord" : 0
            },
            "pbrMetallicRoughness" : {
                "baseColorTexture" : {
                    "index" : 4,
                    "texCoord" : 0
                },
                "metallicFactor" : 0,
                "metallicRoughnessTexture" : {
                    "index" : 5,
                    "texCoord" : 0
                }
            }
        },
        {
            "doubleSided" : true,
            "name" : "white",
            "pbrMetallicRoughness" : {
                "baseColorFactor" : [
                    0.04518621414899826,
                    0.02624122053384781,
                    0.016807377338409424,
                    1
                ],
                "metallicFactor" : 0,
                "roughnessFactor" : 0.8736192584037781
            }
        },
        {
            "doubleSided" : true,
            "name" : "flltgrey",
            "pbrMetallicRoughness" : {
                "baseColorFactor" : [
                    0.8245000243186951,
                    0.8245000243186951,
                    0.8245000243186951,
                    1
                ],
                "metallicFactor" : 0,
                "roughnessFactor" : 0.9666666388511658
            }
        },
        {
            "doubleSided" : true,
            "name" : "papierpeint",
            "pbrMetallicRoughness" : {
                "baseColorTexture" : {
                    "index" : 6,
                    "texCoord" : 0
                },
                "metallicFactor" : 0,
                "roughnessFactor" : 0.9409090876579285
            }
        }
    ],
    "meshes" : [
        {
            "name" : "loft01",
            "primitives" : [
                {
                    "attributes" : {
                        "POSITION" : 0,
                        "NORMAL" : 1,
                        "TEXCOORD_0" : 2
                    },
                    "indices" : 3,
                    "material" : 0
                },
                {
                    "attributes" : {
                        "POSITION" : 4,
                        "NORMAL" : 5,
                        "TEXCOORD_0" : 6
                    },
                    "indices" : 7,
                    "material" : 1
                },
                {
                    "attributes" : {
                        "POSITION" : 8,
                        "NORMAL" : 9,
                        "TEXCOORD_0" : 10
                    },
                    "indices" : 11,
                    "material" : 2
                },
                {
                    "attributes" : {
                        "POSITION" : 12,
                        "NORMAL" : 13,
                        "TEXCOORD_0" : 14
                    },
                    "indices" : 15,
                    "material" : 3
                },
                {
                    "attributes" : {
                        "POSITION" : 16,
                        "NORMAL" : 17,
                        "TEXCOORD_0" : 18
                    },
                    "indices" : 19,
                    "material" : 4
                }
            ]
        },
        {
            "name" : "Cube",
            "primitives" : [
                {
                    "attributes" : {
                        "POSITION" : 20,
                        "NORMAL" : 21,
                        "TEXCOORD_0" : 22
                    },
                    "indices" : 23,
                    "material" : 4
                },
                {
                    "attributes" : {
                        "POSITION" : 24,
                        "NORMAL" : 25,
                        "TEXCOORD_0" : 26
                    },
                    "indices" : 27,
                    "material" : 1
                },
                {
                    "attributes" : {
                        "POSITION" : 28,
                        "NORMAL" : 29,
                        "TEXCOORD_0" : 30
                    },
                    "indices" : 31,
                    "material" : 2
                }
            ]
        },
        {
            "name" : "loft01.001",
            "primitives" : [
                {
                    "attributes" : {
                        "POSITION" : 32,
                        "NORMAL" : 33,
                        "TEXCOORD_0" : 34
                    },
                    "indices" : 35,
                    "material" : 0
                }
            ]
        }
    ],
    "textures" : [
        {
            "source" : 0
        },
        {
            "source" : 1
        },
        {
            "source" : 2
        },
        {
            "source" : 3
        },
        {
            "source" : 4
        },
        {
            "source" : 5
        },
        {
            "source" : 6
        }
    ],
    "images" : [
        {
            "mimeType" : "image/png",
            "name" : "TexturesCom_Wood_PlanksTemple03_1.8x1.8_1K_normal",
            "uri" : "TexturesCom_Wood_PlanksTemple03_1_8x1_8_1K_normal.png"
        },
        {
            "mimeType" : "image/png",
            "name" : "TexturesCom_Wood_PlanksTemple03_1.8x1.8_1K_albedo",
            "uri" : "TexturesCom_Wood_PlanksTemple03_1_8x1_8_1K_albedo.png"
        },
        {
            "mimeType" : "image/png",
            "name" : "TexturesCom_Wood_PlanksTemple03_1.8x1.8_1K_roughness",
            "uri" : "TexturesCom_Wood_PlanksTemple03_1_8x1_8_1K_roughness.png"
        },
        {
            "mimeType" : "image/png",
            "name" : "TexturesCom_Wood_WallTrim_1K_normal",
            "uri" : "TexturesCom_Wood_WallTrim_1K_normal.png"
        },
        {
            "mimeType" : "image/png",
            "name" : "TexturesCom_Wood_WallTrim_1K_albedo",
            "uri" : "TexturesCom_Wood_WallTrim_1K_albedo.png"
        },
        {
            "mimeType" : "image/png",
            "name" : "TexturesCom_Wood_WallTrim_1K_roughness",
            "uri" : "TexturesCom_Wood_WallTrim_1K_roughness.png"
        },
        {
            "mimeType" : "image/jpeg",
            "name" : "TexturesCom_WallpaperForties0041_seamless_S",
            "uri" : "TexturesCom_WallpaperForties0041_seamless_S.jpg"
        }
    ],
    "accessors" : [
        {
            "bufferView" : 0,
            "componentType" : 5126,
            "count" : 8,
            "max" : [
                1405.5,
                812.6990356445312,
                0
            ],
            "min" : [
                383.4996032714844,
                -6.168428421020508,
                0
            ],
            "type" : "VEC3"
        },
        {
            "bufferView" : 1,
            "componentType" : 5126,
            "count" : 8,
            "type" : "VEC3"
        },
        {
            "bufferView" : 2,
            "componentType" : 5126,
            "count" : 8,
            "type" : "VEC2"
        },
        {
            "bufferView" : 3,
            "componentType" : 5123,
            "count" : 18,
            "type" : "SCALAR"
        },
        {
            "bufferView" : 4,
            "componentType" : 5126,
            "count" : 448,
            "max" : [
                1405.5,
                810.8319702148438,
                0
            ],
            "min" : [
                383.5,
                -6.168055057525635,
                -250
            ],
            "type" : "VEC3"
        },
        {
            "bufferView" : 5,
            "componentType" : 5126,
            "count" : 448,
            "type" : "VEC3"
        },
        {
            "bufferView" : 6,
            "componentType" : 5126,
            "count" : 448,
            "type" : "VEC2"
        },
        {
            "bufferView" : 7,
            "componentType" : 5123,
            "count" : 1104,
            "type" : "SCALAR"
        },
        {
            "bufferView" : 8,
            "componentType" : 5126,
            "count" : 1098,
            "max" : [
                1223.1363525390625,
                812.6990966796875,
                0
            ],
            "min" : [
                383.4996032714844,
                -6.16842794418335,
                -221
            ],
            "type" : "VEC3"
        },
        {
            "bufferView" : 9,
            "componentType" : 5126,
            "count" : 1098,
            "type" : "VEC3"
        },
        {
            "bufferView" : 10,
            "componentType" : 5126,
            "count" : 1098,
            "type" : "VEC2"
        },
        {
            "bufferView" : 11,
            "componentType" : 5123,
            "count" : 3222,
            "type" : "SCALAR"
        },
        {
            "bufferView" : 12,
            "componentType" : 5126,
            "count" : 64,
            "max" : [
                1212.1363525390625,
                463.1669006347656,
                -60.90000534057617
            ],
            "min" : [
                397.23004150390625,
                7.562015056610107,
                -207.9000244140625
            ],
            "type" : "VEC3"
        },
        {
            "bufferView" : 13,
            "componentType" : 5126,
            "count" : 64,
            "type" : "VEC3"
        },
        {
            "bufferView" : 14,
            "componentType" : 5126,
            "count" : 64,
            "type" : "VEC2"
        },
        {
            "bufferView" : 15,
            "componentType" : 5123,
            "count" : 96,
            "type" : "SCALAR"
        },
        {
            "bufferView" : 16,
            "componentType" : 5126,
            "count" : 40,
            "max" : [
                1392.313720703125,
                796.8319702148438,
                -125
            ],
            "min" : [
                397.5,
                7.553412914276123,
                -250.44915771484375
            ],
            "type" : "VEC3"
        },
        {
            "bufferView" : 17,
            "componentType" : 5126,
            "count" : 40,
            "type" : "VEC3"
        },
        {
            "bufferView" : 18,
            "componentType" : 5126,
            "count" : 40,
            "type" : "VEC2"
        },
        {
            "bufferView" : 19,
            "componentType" : 5123,
            "count" : 60,
            "type" : "SCALAR"
        },
        {
            "bufferView" : 20,
            "componentType" : 5126,
            "count" : 66,
            "max" : [
                74.66876983642578,
                25,
                58.93595886230469
            ],
            "min" : [
                70.66876983642578,
                -0.052288055419921875,
                0.7832042574882507
            ],
            "type" : "VEC3"
        },
        {
            "bufferView" : 21,
            "componentType" : 5126,
            "count" : 66,
            "type" : "VEC3"
        },
        {
            "bufferView" : 22,
            "componentType" : 5126,
            "count" : 66,
            "type" : "VEC2"
        },
        {
            "bufferView" : 23,
            "componentType" : 5123,
            "count" : 108,
            "type" : "SCALAR"
        },
        {
            "bufferView" : 24,
            "componentType" : 5126,
            "count" : 28,
            "max" : [
                74.66876983642578,
                12.473855972290039,
                58.93595886230469
            ],
            "min" : [
                70.66876983642578,
                -0.052288055419921875,
                1.7487049102783203
            ],
            "type" : "VEC3"
        },
        {
            "bufferView" : 25,
            "componentType" : 5126,
            "count" : 28,
            "type" : "VEC3"
        },
        {
            "bufferView" : 26,
            "componentType" : 5126,
            "count" : 28,
            "type" : "VEC2"
        },
        {
            "bufferView" : 27,
            "componentType" : 5123,
            "count" : 42,
            "type" : "SCALAR"
        },
        {
            "bufferView" : 28,
            "componentType" : 5126,
            "count" : 16,
            "max" : [
                74.66876983642578,
                12.473855972290039,
                58.93595886230469
            ],
            "min" : [
                70.66876983642578,
                12.473855972290039,
                1.7487049102783203
            ],
            "type" : "VEC3"
        },
        {
            "bufferView" : 29,
            "componentType" : 5126,
            "count" : 16,
            "type" : "VEC3"
        },
        {
            "bufferView" : 30,
            "componentType" : 5126,
            "count" : 16,
            "type" : "VEC2"
        },
        {
            "bufferView" : 31,
            "componentType" : 5123,
            "count" : 30,
            "type" : "SCALAR"
        },
        {
            "bufferView" : 32,
            "componentType" : 5126,
            "count" : 4,
            "max" : [
                1405.5,
                810.8319702148438,
                0
            ],
            "min" : [
                383.5,
                -6.168055057525635,
                0
            ],
            "type" : "VEC3"
        },
        {
            "bufferView" : 33,
            "componentType" : 5126,
            "count" : 4,
            "type" : "VEC3"
        },
        {
            "bufferView" : 34,
            "componentType" : 5126,
            "count" : 4,
            "type" : "VEC2"
        },
        {
            "bufferView" : 35,
            "componentType" : 5123,
            "count" : 6,
            "type" : "SCALAR"
        }
    ],
    "bufferViews" : [
        {
            "buffer" : 0,
            "byteLength" : 96,
            "byteOffset" : 0
        },
        {
            "buffer" : 0,
            "byteLength" : 96,
            "byteOffset" : 96
        },
        {
            "buffer" : 0,
            "byteLength" : 64,
            "byteOffset" : 192
        },
        {
            "buffer" : 0,
            "byteLength" : 36,
            "byteOffset" : 256
        },
        {
            "buffer" : 0,
            "byteLength" : 5376,
            "byteOffset" : 292
        },
        {
            "buffer" : 0,
            "byteLength" : 5376,
            "byteOffset" : 5668
        },
        {
            "buffer" : 0,
            "byteLength" : 3584,
            "byteOffset" : 11044
        },
        {
            "buffer" : 0,
            "byteLength" : 2208,
            "byteOffset" : 14628
        },
        {
            "buffer" : 0,
            "byteLength" : 13176,
            "byteOffset" : 16836
        },
        {
            "buffer" : 0,
            "byteLength" : 13176,
            "byteOffset" : 30012
        },
        {
            "buffer" : 0,
            "byteLength" : 8784,
            "byteOffset" : 43188
        },
        {
            "buffer" : 0,
            "byteLength" : 6444,
            "byteOffset" : 51972
        },
        {
            "buffer" : 0,
            "byteLength" : 768,
            "byteOffset" : 58416
        },
        {
            "buffer" : 0,
            "byteLength" : 768,
            "byteOffset" : 59184
        },
        {
            "buffer" : 0,
            "byteLength" : 512,
            "byteOffset" : 59952
        },
        {
            "buffer" : 0,
            "byteLength" : 192,
            "byteOffset" : 60464
        },
        {
            "buffer" : 0,
            "byteLength" : 480,
            "byteOffset" : 60656
        },
        {
            "buffer" : 0,
            "byteLength" : 480,
            "byteOffset" : 61136
        },
        {
            "buffer" : 0,
            "byteLength" : 320,
            "byteOffset" : 61616
        },
        {
            "buffer" : 0,
            "byteLength" : 120,
            "byteOffset" : 61936
        },
        {
            "buffer" : 0,
            "byteLength" : 792,
            "byteOffset" : 62056
        },
        {
            "buffer" : 0,
            "byteLength" : 792,
            "byteOffset" : 62848
        },
        {
            "buffer" : 0,
            "byteLength" : 528,
            "byteOffset" : 63640
        },
        {
            "buffer" : 0,
            "byteLength" : 216,
            "byteOffset" : 64168
        },
        {
            "buffer" : 0,
            "byteLength" : 336,
            "byteOffset" : 64384
        },
        {
            "buffer" : 0,
            "byteLength" : 336,
            "byteOffset" : 64720
        },
        {
            "buffer" : 0,
            "byteLength" : 224,
            "byteOffset" : 65056
        },
        {
            "buffer" : 0,
            "byteLength" : 84,
            "byteOffset" : 65280
        },
        {
            "buffer" : 0,
            "byteLength" : 192,
            "byteOffset" : 65364
        },
        {
            "buffer" : 0,
            "byteLength" : 192,
            "byteOffset" : 65556
        },
        {
            "buffer" : 0,
            "byteLength" : 128,
            "byteOffset" : 65748
        },
        {
            "buffer" : 0,
            "byteLength" : 60,
            "byteOffset" : 65876
        },
        {
            "buffer" : 0,
            "byteLength" : 48,
            "byteOffset" : 65936
        },
        {
            "buffer" : 0,
            "byteLength" : 48,
            "byteOffset" : 65984
        },
        {
            "buffer" : 0,
            "byteLength" : 32,
            "byteOffset" : 66032
        },
        {
            "buffer" : 0,
            "byteLength" : 12,
            "byteOffset" : 66064
        }
    ],
    "buffers" : [
        {
            "byteLength" : 66076,
            "uri" : "loft1.bin"
        }
    ]
}
