{
    "asset" : {
        "generator" : "Khronos glTF Blender I/O v1.0.5",
        "version" : "2.0"
    },
    "scene" : 0,
    "scenes" : [
        {
            "extras" : {
                "glTF2ExportSettings" : {
                    "export_apply" : 1,
                    "export_extras" : 1,
                    "export_format" : "GLTF_SEPARATE",
                    "export_selected" : 1
                }
            },
            "name" : "Scene",
            "nodes" : [
                0
            ]
        }
    ],
    "nodes" : [
        {
            "mesh" : 0,
            "name" : "loft01",
            "rotation" : [
                0.7071068286895752,
                0,
                0,
                0.7071067094802856
            ],
            "scale" : [
                0.10000000149011612,
                0.10000000149011612,
                0.10000000149011612
            ]
        }
    ],
    "materials" : [
        {
            "doubleSided" : true,
            "name" : "ground_1",
            "normalTexture" : {
                "index" : 0,
                "texCoord" : 0
            },
            "pbrMetallicRoughness" : {
                "baseColorTexture" : {
                    "index" : 1,
                    "texCoord" : 0
                },
                "metallicFactor" : 0,
                "metallicRoughnessTexture" : {
                    "index" : 2,
                    "texCoord" : 0
                }
            }
        },
        {
            "doubleSided" : true,
            "name" : "wall_1_2",
            "normalTexture" : {
                "index" : 3,
                "texCoord" : 0
            },
            "pbrMetallicRoughness" : {
                "baseColorTexture" : {
                    "index" : 4,
                    "texCoord" : 0
                },
                "metallicFactor" : 0,
                "metallicRoughnessTexture" : {
                    "index" : 5,
                    "texCoord" : 0
                }
            }
        },
        {
            "doubleSided" : true,
            "name" : "white",
            "pbrMetallicRoughness" : {
                "baseColorFactor" : [
                    0.04518621414899826,
                    0.02624122053384781,
                    0.016807377338409424,
                    1
                ],
                "metallicFactor" : 0,
                "roughnessFactor" : 0.8736192584037781
            }
        },
        {
            "doubleSided" : true,
            "name" : "flltgrey",
            "pbrMetallicRoughness" : {
                "baseColorFactor" : [
                    0.8245000243186951,
                    0.8245000243186951,
                    0.8245000243186951,
                    1
                ],
                "metallicFactor" : 0,
                "roughnessFactor" : 0.9666666388511658
            }
        },
        {
            "doubleSided" : true,
            "name" : "papierpeint",
            "pbrMetallicRoughness" : {
                "baseColorTexture" : {
                    "index" : 6,
                    "texCoord" : 0
                },
                "metallicFactor" : 0,
                "roughnessFactor" : 0.9409090876579285
            }
        }
    ],
    "meshes" : [
        {
            "name" : "loft01",
            "primitives" : [
                {
                    "attributes" : {
                        "POSITION" : 0,
                        "NORMAL" : 1,
                        "TEXCOORD_0" : 2
                    },
                    "indices" : 3,
                    "material" : 0
                },
                {
                    "attributes" : {
                        "POSITION" : 4,
                        "NORMAL" : 5,
                        "TEXCOORD_0" : 6
                    },
                    "indices" : 7,
                    "material" : 1
                },
                {
                    "attributes" : {
                        "POSITION" : 8,
                        "NORMAL" : 9,
                        "TEXCOORD_0" : 10
                    },
                    "indices" : 11,
                    "material" : 2
                },
                {
                    "attributes" : {
                        "POSITION" : 12,
                        "NORMAL" : 13,
                        "TEXCOORD_0" : 14
                    },
                    "indices" : 15,
                    "material" : 3
                },
                {
                    "attributes" : {
                        "POSITION" : 16,
                        "NORMAL" : 17,
                        "TEXCOORD_0" : 18
                    },
                    "indices" : 19,
                    "material" : 4
                }
            ]
        }
    ],
    "textures" : [
        {
            "source" : 0
        },
        {
            "source" : 1
        },
        {
            "source" : 2
        },
        {
            "source" : 3
        },
        {
            "source" : 4
        },
        {
            "source" : 5
        },
        {
            "source" : 6
        }
    ],
    "images" : [
        {
            "mimeType" : "image/png",
            "name" : "TexturesCom_Wood_PlanksTemple03_1.8x1.8_1K_normal",
            "uri" : "TexturesCom_Wood_PlanksTemple03_1_8x1_8_1K_normal.png"
        },
        {
            "mimeType" : "image/png",
            "name" : "TexturesCom_Wood_PlanksTemple03_1.8x1.8_1K_albedo",
            "uri" : "TexturesCom_Wood_PlanksTemple03_1_8x1_8_1K_albedo.png"
        },
        {
            "mimeType" : "image/png",
            "name" : "TexturesCom_Wood_PlanksTemple03_1.8x1.8_1K_roughness",
            "uri" : "TexturesCom_Wood_PlanksTemple03_1_8x1_8_1K_roughness.png"
        },
        {
            "mimeType" : "image/png",
            "name" : "TexturesCom_Wood_WallTrim_1K_normal",
            "uri" : "TexturesCom_Wood_WallTrim_1K_normal.png"
        },
        {
            "mimeType" : "image/png",
            "name" : "TexturesCom_Wood_WallTrim_1K_albedo",
            "uri" : "TexturesCom_Wood_WallTrim_1K_albedo.png"
        },
        {
            "mimeType" : "image/png",
            "name" : "TexturesCom_Wood_WallTrim_1K_roughness",
            "uri" : "TexturesCom_Wood_WallTrim_1K_roughness.png"
        },
        {
            "mimeType" : "image/jpeg",
            "name" : "TexturesCom_WallpaperForties0041_seamless_S",
            "uri" : "TexturesCom_WallpaperForties0041_seamless_S.jpg"
        }
    ],
    "accessors" : [
        {
            "bufferView" : 0,
            "componentType" : 5126,
            "count" : 12,
            "max" : [
                1405.5,
                812.6990356445312,
                0
            ],
            "min" : [
                383.4996032714844,
                -6.168428421020508,
                0
            ],
            "type" : "VEC3"
        },
        {
            "bufferView" : 1,
            "componentType" : 5126,
            "count" : 12,
            "type" : "VEC3"
        },
        {
            "bufferView" : 2,
            "componentType" : 5126,
            "count" : 12,
            "type" : "VEC2"
        },
        {
            "bufferView" : 3,
            "componentType" : 5123,
            "count" : 24,
            "type" : "SCALAR"
        },
        {
            "bufferView" : 4,
            "componentType" : 5126,
            "count" : 448,
            "max" : [
                1405.5,
                810.8319702148438,
                0
            ],
            "min" : [
                383.5,
                -6.168055057525635,
                -250
            ],
            "type" : "VEC3"
        },
        {
            "bufferView" : 5,
            "componentType" : 5126,
            "count" : 448,
            "type" : "VEC3"
        },
        {
            "bufferView" : 6,
            "componentType" : 5126,
            "count" : 448,
            "type" : "VEC2"
        },
        {
            "bufferView" : 7,
            "componentType" : 5123,
            "count" : 1104,
            "type" : "SCALAR"
        },
        {
            "bufferView" : 8,
            "componentType" : 5126,
            "count" : 1098,
            "max" : [
                1223.1363525390625,
                812.6990966796875,
                0
            ],
            "min" : [
                383.4996032714844,
                -6.16842794418335,
                -221
            ],
            "type" : "VEC3"
        },
        {
            "bufferView" : 9,
            "componentType" : 5126,
            "count" : 1098,
            "type" : "VEC3"
        },
        {
            "bufferView" : 10,
            "componentType" : 5126,
            "count" : 1098,
            "type" : "VEC2"
        },
        {
            "bufferView" : 11,
            "componentType" : 5123,
            "count" : 3222,
            "type" : "SCALAR"
        },
        {
            "bufferView" : 12,
            "componentType" : 5126,
            "count" : 64,
            "max" : [
                1212.1363525390625,
                463.1669006347656,
                -60.90000534057617
            ],
            "min" : [
                397.23004150390625,
                7.562015056610107,
                -207.9000244140625
            ],
            "type" : "VEC3"
        },
        {
            "bufferView" : 13,
            "componentType" : 5126,
            "count" : 64,
            "type" : "VEC3"
        },
        {
            "bufferView" : 14,
            "componentType" : 5126,
            "count" : 64,
            "type" : "VEC2"
        },
        {
            "bufferView" : 15,
            "componentType" : 5123,
            "count" : 96,
            "type" : "SCALAR"
        },
        {
            "bufferView" : 16,
            "componentType" : 5126,
            "count" : 40,
            "max" : [
                1392.313720703125,
                796.8319702148438,
                -125
            ],
            "min" : [
                397.5,
                7.553412914276123,
                -250.44915771484375
            ],
            "type" : "VEC3"
        },
        {
            "bufferView" : 17,
            "componentType" : 5126,
            "count" : 40,
            "type" : "VEC3"
        },
        {
            "bufferView" : 18,
            "componentType" : 5126,
            "count" : 40,
            "type" : "VEC2"
        },
        {
            "bufferView" : 19,
            "componentType" : 5123,
            "count" : 60,
            "type" : "SCALAR"
        }
    ],
    "bufferViews" : [
        {
            "buffer" : 0,
            "byteLength" : 144,
            "byteOffset" : 0
        },
        {
            "buffer" : 0,
            "byteLength" : 144,
            "byteOffset" : 144
        },
        {
            "buffer" : 0,
            "byteLength" : 96,
            "byteOffset" : 288
        },
        {
            "buffer" : 0,
            "byteLength" : 48,
            "byteOffset" : 384
        },
        {
            "buffer" : 0,
            "byteLength" : 5376,
            "byteOffset" : 432
        },
        {
            "buffer" : 0,
            "byteLength" : 5376,
            "byteOffset" : 5808
        },
        {
            "buffer" : 0,
            "byteLength" : 3584,
            "byteOffset" : 11184
        },
        {
            "buffer" : 0,
            "byteLength" : 2208,
            "byteOffset" : 14768
        },
        {
            "buffer" : 0,
            "byteLength" : 13176,
            "byteOffset" : 16976
        },
        {
            "buffer" : 0,
            "byteLength" : 13176,
            "byteOffset" : 30152
        },
        {
            "buffer" : 0,
            "byteLength" : 8784,
            "byteOffset" : 43328
        },
        {
            "buffer" : 0,
            "byteLength" : 6444,
            "byteOffset" : 52112
        },
        {
            "buffer" : 0,
            "byteLength" : 768,
            "byteOffset" : 58556
        },
        {
            "buffer" : 0,
            "byteLength" : 768,
            "byteOffset" : 59324
        },
        {
            "buffer" : 0,
            "byteLength" : 512,
            "byteOffset" : 60092
        },
        {
            "buffer" : 0,
            "byteLength" : 192,
            "byteOffset" : 60604
        },
        {
            "buffer" : 0,
            "byteLength" : 480,
            "byteOffset" : 60796
        },
        {
            "buffer" : 0,
            "byteLength" : 480,
            "byteOffset" : 61276
        },
        {
            "buffer" : 0,
            "byteLength" : 320,
            "byteOffset" : 61756
        },
        {
            "buffer" : 0,
            "byteLength" : 120,
            "byteOffset" : 62076
        }
    ],
    "buffers" : [
        {
            "byteLength" : 62196,
            "uri" : "loft1.bin"
        }
    ]
}
