{
    "asset" : {
        "generator" : "Khronos glTF Blender I/O v1.0.5",
        "version" : "2.0"
    },
    "scene" : 0,
    "scenes" : [
        {
            "extras" : {
                "glTF2ExportSettings" : {
                    "export_apply" : 1,
                    "export_extras" : 1,
                    "export_format" : "GLTF_SEPARATE",
                    "export_selected" : 1
                }
            },
            "name" : "Scene",
            "nodes" : [
                0
            ]
        }
    ],
    "nodes" : [
        {
            "mesh" : 0,
            "name" : "Sphere",
            "translation" : [
                85.70196533203125,
                10.082386016845703,
                -19.858028411865234
            ]
        }
    ],
    "materials" : [
        {
            "doubleSided" : true,
            "name" : "flltgrey",
            "pbrMetallicRoughness" : {
                "baseColorFactor" : [
                    0.8245000243186951,
                    0.8245000243186951,
                    0.8245000243186951,
                    1
                ],
                "metallicFactor" : 0,
                "roughnessFactor" : 0.9666666388511658
            }
        },
        {
            "doubleSided" : true,
            "name" : "porteSDBMat",
            "normalTexture" : {
                "index" : 0,
                "texCoord" : 0
            },
            "pbrMetallicRoughness" : {
                "baseColorTexture" : {
                    "index" : 1,
                    "texCoord" : 0
                },
                "metallicFactor" : 0,
                "metallicRoughnessTexture" : {
                    "index" : 2,
                    "texCoord" : 0
                }
            }
        }
    ],
    "meshes" : [
        {
            "name" : "Sphere",
            "primitives" : [
                {
                    "attributes" : {
                        "POSITION" : 0,
                        "NORMAL" : 1,
                        "TEXCOORD_0" : 2
                    },
                    "indices" : 3,
                    "material" : 0
                },
                {
                    "attributes" : {
                        "POSITION" : 4,
                        "NORMAL" : 5,
                        "TEXCOORD_0" : 6
                    },
                    "indices" : 7,
                    "material" : 1
                }
            ]
        }
    ],
    "textures" : [
        {
            "source" : 0
        },
        {
            "source" : 1
        },
        {
            "source" : 2
        }
    ],
    "images" : [
        {
            "mimeType" : "image/png",
            "name" : "TexturesCom_Plaster_Plain_1K_normal",
            "uri" : "TexturesCom_Plaster_Plain_1K_normal.png"
        },
        {
            "mimeType" : "image/png",
            "name" : "TexturesCom_Plaster_Plain_1K_albedo",
            "uri" : "TexturesCom_Plaster_Plain_1K_albedo.png"
        },
        {
            "mimeType" : "image/png",
            "name" : "TexturesCom_Plaster_Plain_1K_roughness",
            "uri" : "TexturesCom_Plaster_Plain_1K_roughness.png"
        }
    ],
    "accessors" : [
        {
            "bufferView" : 0,
            "componentType" : 5126,
            "count" : 3968,
            "max" : [
                0.17056956887245178,
                0.1705695241689682,
                0.6565505862236023
            ],
            "min" : [
                -0.1705694943666458,
                -0.1705695241689682,
                -0.1705695241689682
            ],
            "type" : "VEC3"
        },
        {
            "bufferView" : 1,
            "componentType" : 5126,
            "count" : 3968,
            "type" : "VEC3"
        },
        {
            "bufferView" : 2,
            "componentType" : 5126,
            "count" : 3968,
            "type" : "VEC2"
        },
        {
            "bufferView" : 3,
            "componentType" : 5123,
            "count" : 5760,
            "type" : "SCALAR"
        },
        {
            "bufferView" : 4,
            "componentType" : 5126,
            "count" : 24,
            "max" : [
                7.193010330200195,
                10.556941032409668,
                0.3569257855415344
            ],
            "min" : [
                -0.7182176113128662,
                -9.80810832977295,
                0.14904041588306427
            ],
            "type" : "VEC3"
        },
        {
            "bufferView" : 5,
            "componentType" : 5126,
            "count" : 24,
            "type" : "VEC3"
        },
        {
            "bufferView" : 6,
            "componentType" : 5126,
            "count" : 24,
            "type" : "VEC2"
        },
        {
            "bufferView" : 7,
            "componentType" : 5123,
            "count" : 36,
            "type" : "SCALAR"
        }
    ],
    "bufferViews" : [
        {
            "buffer" : 0,
            "byteLength" : 47616,
            "byteOffset" : 0
        },
        {
            "buffer" : 0,
            "byteLength" : 47616,
            "byteOffset" : 47616
        },
        {
            "buffer" : 0,
            "byteLength" : 31744,
            "byteOffset" : 95232
        },
        {
            "buffer" : 0,
            "byteLength" : 11520,
            "byteOffset" : 126976
        },
        {
            "buffer" : 0,
            "byteLength" : 288,
            "byteOffset" : 138496
        },
        {
            "buffer" : 0,
            "byteLength" : 288,
            "byteOffset" : 138784
        },
        {
            "buffer" : 0,
            "byteLength" : 192,
            "byteOffset" : 139072
        },
        {
            "buffer" : 0,
            "byteLength" : 72,
            "byteOffset" : 139264
        }
    ],
    "buffers" : [
        {
            "byteLength" : 139336,
            "uri" : "porte.bin"
        }
    ]
}
