{
    "asset" : {
        "generator" : "Khronos glTF Blender I/O v1.0.5",
        "version" : "2.0"
    },
    "scene" : 0,
    "scenes" : [
        {
            "name" : "Scene",
            "nodes" : [
                0
            ]
        }
    ],
    "nodes" : [
        {
            "mesh" : 0,
            "name" : "autre.001",
            "translation" : [
                -0.025828421115875244,
                0,
                -11.207108497619629
            ]
        }
    ],
    "materials" : [
        {
            "doubleSided" : true,
            "name" : "tableauMat",
            "pbrMetallicRoughness" : {
                "baseColorFactor" : [
                    0.04033331573009491,
                    0.010248653590679169,
                    0.007749912329018116,
                    1
                ],
                "metallicFactor" : 0,
                "roughnessFactor" : 0.9416667222976685
            }
        },
        {
            "doubleSided" : true,
            "name" : "americanMat",
            "pbrMetallicRoughness" : {
                "baseColorTexture" : {
                    "index" : 0,
                    "texCoord" : 0
                },
                "metallicFactor" : 0,
                "roughnessFactor" : 0.9409090876579285
            }
        }
    ],
    "meshes" : [
        {
            "name" : "Cube.002",
            "primitives" : [
                {
                    "attributes" : {
                        "POSITION" : 0,
                        "NORMAL" : 1,
                        "TEXCOORD_0" : 2
                    },
                    "indices" : 3,
                    "material" : 0
                },
                {
                    "attributes" : {
                        "POSITION" : 4,
                        "NORMAL" : 5,
                        "TEXCOORD_0" : 6
                    },
                    "indices" : 7,
                    "material" : 1
                }
            ]
        }
    ],
    "textures" : [
        {
            "source" : 0
        }
    ],
    "images" : [
        {
            "mimeType" : "image/png",
            "name" : "americangothic",
            "uri" : "americangothic.png"
        }
    ],
    "accessors" : [
        {
            "bufferView" : 0,
            "componentType" : 5126,
            "count" : 612,
            "max" : [
                0.1220586895942688,
                1.3349047899246216,
                1.1879571676254272
            ],
            "min" : [
                -0.07040185481309891,
                -1.3349047899246216,
                -1.1879571676254272
            ],
            "type" : "VEC3"
        },
        {
            "bufferView" : 1,
            "componentType" : 5126,
            "count" : 612,
            "type" : "VEC3"
        },
        {
            "bufferView" : 2,
            "componentType" : 5126,
            "count" : 612,
            "type" : "VEC2"
        },
        {
            "bufferView" : 3,
            "componentType" : 5123,
            "count" : 918,
            "type" : "SCALAR"
        },
        {
            "bufferView" : 4,
            "componentType" : 5126,
            "count" : 4,
            "max" : [
                0.037847112864255905,
                1.2014142274856567,
                1.0691614151000977
            ],
            "min" : [
                0.037847112864255905,
                -1.2014142274856567,
                -1.0691614151000977
            ],
            "type" : "VEC3"
        },
        {
            "bufferView" : 5,
            "componentType" : 5126,
            "count" : 4,
            "type" : "VEC3"
        },
        {
            "bufferView" : 6,
            "componentType" : 5126,
            "count" : 4,
            "type" : "VEC2"
        },
        {
            "bufferView" : 7,
            "componentType" : 5123,
            "count" : 6,
            "type" : "SCALAR"
        }
    ],
    "bufferViews" : [
        {
            "buffer" : 0,
            "byteLength" : 7344,
            "byteOffset" : 0
        },
        {
            "buffer" : 0,
            "byteLength" : 7344,
            "byteOffset" : 7344
        },
        {
            "buffer" : 0,
            "byteLength" : 4896,
            "byteOffset" : 14688
        },
        {
            "buffer" : 0,
            "byteLength" : 1836,
            "byteOffset" : 19584
        },
        {
            "buffer" : 0,
            "byteLength" : 48,
            "byteOffset" : 21420
        },
        {
            "buffer" : 0,
            "byteLength" : 48,
            "byteOffset" : 21468
        },
        {
            "buffer" : 0,
            "byteLength" : 32,
            "byteOffset" : 21516
        },
        {
            "buffer" : 0,
            "byteLength" : 12,
            "byteOffset" : 21548
        }
    ],
    "buffers" : [
        {
            "byteLength" : 21560,
            "uri" : "tableau03.bin"
        }
    ]
}
