{
  "accessors": [
    {
      "bufferView": 2,
      "componentType": 5126,
      "count": 441,
      "max": [
        0.14222219586372375,
        0.1411852240562439,
        0.195273756980896
      ],
      "min": [
        -0.14222219586372375,
        -0.1411852240562439,
        -0.226279616355896
      ],
      "type": "VEC3"
    },
    {
      "bufferView": 2,
      "byteOffset": 5292,
      "componentType": 5126,
      "count": 441,
      "max": [
        1,
        1,
        1
      ],
      "min": [
        -1,
        -1,
        -1
      ],
      "type": "VEC3"
    },
    {
      "bufferView": 3,
      "componentType": 5126,
      "count": 441,
      "max": [
        1,
        1,
        0.63420283794403076,
        1
      ],
      "min": [
        -1,
        -1,
        -1,
        1
      ],
      "type": "VEC4"
    },
    {
      "bufferView": 1,
      "componentType": 5126,
      "count": 441,
      "max": [
        1.5690908432006836,
        0.69491934776306152
      ],
      "min": [
        0.012476548552513123,
        0.44825932383537292
      ],
      "type": "VEC2"
    },
    {
      "bufferView": 0,
      "componentType": 5125,
      "count": 1356,
      "max": [
        440
      ],
      "min": [
        0
      ],
      "type": "SCALAR"
    },
    {
      "bufferView": 2,
      "byteOffset": 10584,
      "componentType": 5126,
      "count": 3729,
      "max": [
        0.76184475421905518,
        0.27834686636924744,
        0.63104760646820068
      ],
      "min": [
        -0.76184475421905518,
        -0.27834689617156982,
        -0.63104760646820068
      ],
      "type": "VEC3"
    },
    {
      "bufferView": 2,
      "byteOffset": 55332,
      "componentType": 5126,
      "count": 3729,
      "max": [
        1,
        1,
        1
      ],
      "min": [
        -1,
        -1,
        -1
      ],
      "type": "VEC3"
    },
    {
      "bufferView": 3,
      "byteOffset": 7056,
      "componentType": 5126,
      "count": 3729,
      "max": [
        1,
        1,
        1,
        1
      ],
      "min": [
        -1,
        -1,
        -1,
        -1
      ],
      "type": "VEC4"
    },
    {
      "bufferView": 1,
      "byteOffset": 3528,
      "componentType": 5126,
      "count": 3729,
      "max": [
        0.99813163280487061,
        0.99721032381057739
      ],
      "min": [
        0.0011565089225769043,
        0.0017624496249482036
      ],
      "type": "VEC2"
    },
    {
      "bufferView": 0,
      "byteOffset": 5424,
      "componentType": 5125,
      "count": 8028,
      "max": [
        3728
      ],
      "min": [
        0
      ],
      "type": "SCALAR"
    }
  ],
  "asset": {
    "extras": {
      "author": "Vincent Boer (https://sketchfab.com/vincent074)",
      "license": "CC-BY-4.0 (http://creativecommons.org/licenses/by/4.0/)",
      "source": "https://sketchfab.com/3d-models/dusty-piano-fe58e81e5fa940319e79796e23053182",
      "title": "Dusty Piano"
    },
    "generator": "Sketchfab-5.53.1",
    "version": "2.0"
  },
  "bufferViews": [
    {
      "buffer": 0,
      "byteLength": 37536,
      "byteOffset": 0,
      "name": "floatBufferViews",
      "target": 34963
    },
    {
      "buffer": 0,
      "byteLength": 33360,
      "byteOffset": 37536,
      "byteStride": 8,
      "name": "floatBufferViews",
      "target": 34962
    },
    {
      "buffer": 0,
      "byteLength": 100080,
      "byteOffset": 70896,
      "byteStride": 12,
      "name": "floatBufferViews",
      "target": 34962
    },
    {
      "buffer": 0,
      "byteLength": 66720,
      "byteOffset": 170976,
      "byteStride": 16,
      "name": "floatBufferViews",
      "target": 34962
    }
  ],
  "buffers": [
    {
      "byteLength": 237696,
      "uri": "scene.bin"
    }
  ],
  "images": [
    {
      "uri": "textures/MAT_Piano_baseColor.png"
    },
    {
      "uri": "textures/MAT_Piano_metallicRoughness.png"
    },
    {
      "uri": "textures/MAT_Piano_normal.png"
    }
  ],
  "materials": [
    {
      "doubleSided": false,
      "name": "MAT_Piano",
      "normalTexture": {
        "index": 2,
        "scale": 1,
        "texCoord": 0
      },
      "occlusionTexture": {
        "index": 1,
        "strength": 1,
        "texCoord": 0
      },
      "pbrMetallicRoughness": {
        "baseColorFactor": [
          1,
          1,
          1,
          1
        ],
        "baseColorTexture": {
          "index": 0,
          "texCoord": 0
        },
        "metallicFactor": 1,
        "metallicRoughnessTexture": {
          "index": 1,
          "texCoord": 0
        },
        "roughnessFactor": 1
      }
    }
  ],
  "meshes": [
    {
      "name": "LP_Stool_MAT_Piano_0",
      "primitives": [
        {
          "attributes": {
            "NORMAL": 1,
            "POSITION": 0,
            "TANGENT": 2,
            "TEXCOORD_0": 3
          },
          "indices": 4,
          "material": 0,
          "mode": 4
        }
      ]
    },
    {
      "name": "LP_Piano_MAT_Piano_0",
      "primitives": [
        {
          "attributes": {
            "NORMAL": 6,
            "POSITION": 5,
            "TANGENT": 7,
            "TEXCOORD_0": 8
          },
          "indices": 9,
          "material": 0,
          "mode": 4
        }
      ]
    }
  ],
  "nodes": [
    {
      "children": [
        1
      ],
      "name": "RootNode (gltf orientation matrix)",
      "rotation": [
        -0.70710678118654746,
        -0,
        -0,
        0.70710678118654757
      ]
    },
    {
      "children": [
        2
      ],
      "name": "RootNode (model correction matrix)"
    },
    {
      "children": [
        3
      ],
      "matrix": [
        1,
        0,
        0,
        0,
        0,
        0,
        1,
        0,
        0,
        -1,
        0,
        0,
        0,
        0,
        0,
        1
      ],
      "name": "675218442ae74054becca1e9f0534aac.fbx"
    },
    {
      "children": [
        4,
        7
      ],
      "name": "RootNode"
    },
    {
      "children": [
        5
      ],
      "matrix": [
        1,
        0,
        0,
        0,
        0,
        2.2204460492503131e-16,
        -1,
        0,
        0,
        1,
        2.2204460492503131e-16,
        0,
        0.20020484924316406,
        0,
        0.42457884550094604,
        1
      ],
      "name": "LP_Stool"
    },
    {
      "children": [
        6
      ],
      "matrix": [
        1,
        0,
        -0,
        0,
        0,
        1,
        0,
        0,
        0,
        0,
        1,
        0,
        0,
        0,
        0.22627958655357361,
        1
      ],
      "name": ""
    },
    {
      "mesh": 0,
      "name": "LP_Stool_MAT_Piano_0"
    },
    {
      "children": [
        8
      ],
      "matrix": [
        1,
        0,
        0,
        0,
        0,
        2.2204460492503131e-16,
        -1,
        0,
        0,
        1,
        2.2204460492503131e-16,
        0,
        0,
        0.63104760646820068,
        -0.058589920401573181,
        1
      ],
      "name": "LP_Piano"
    },
    {
      "mesh": 1,
      "name": "LP_Piano_MAT_Piano_0"
    }
  ],
  "samplers": [
    {
      "magFilter": 9729,
      "minFilter": 9987,
      "wrapS": 10497,
      "wrapT": 10497
    }
  ],
  "scene": 0,
  "scenes": [
    {
      "name": "OSG_Scene",
      "nodes": [
        0
      ]
    }
  ],
  "textures": [
    {
      "sampler": 0,
      "source": 0
    },
    {
      "sampler": 0,
      "source": 1
    },
    {
      "sampler": 0,
      "source": 2
    }
  ]
}

