{
    "asset" : {
        "generator" : "Khronos glTF Blender I/O v1.0.5",
        "version" : "2.0"
    },
    "scene" : 0,
    "scenes" : [
        {
            "name" : "Scene",
            "nodes" : [
                0,
                1,
                2,
                3
            ]
        }
    ],
    "nodes" : [
        {
            "name" : "Light",
            "rotation" : [
                0.16907575726509094,
                0.7558803558349609,
                -0.27217137813568115,
                0.570947527885437
            ],
            "translation" : [
                4.076245307922363,
                5.903861999511719,
                -1.0054539442062378
            ]
        },
        {
            "name" : "Camera",
            "rotation" : [
                0.483536034822464,
                0.33687159419059753,
                -0.20870360732078552,
                0.7804827094078064
            ],
            "translation" : [
                7.358891487121582,
                4.958309173583984,
                6.925790786743164
            ]
        },
        {
            "mesh" : 0,
            "name" : "house03"
        },
        {
            "mesh" : 1,
            "name" : "ground"
        }
    ],
    "materials" : [
        {
            "doubleSided" : true,
            "name" : "ground_1",
            "normalTexture" : {
                "index" : 0,
                "texCoord" : 0
            },
            "pbrMetallicRoughness" : {
                "baseColorTexture" : {
                    "index" : 1,
                    "texCoord" : 0
                },
                "metallicFactor" : 0,
                "metallicRoughnessTexture" : {
                    "index" : 2,
                    "texCoord" : 0
                }
            }
        },
        {
            "doubleSided" : true,
            "name" : "hallMat",
            "pbrMetallicRoughness" : {
                "baseColorTexture" : {
                    "index" : 3,
                    "texCoord" : 0
                },
                "metallicFactor" : 0,
                "roughnessFactor" : 0.9666666388511658
            }
        },
        {
            "doubleSided" : true,
            "name" : "white",
            "pbrMetallicRoughness" : {
                "baseColorFactor" : [
                    1,
                    1,
                    1,
                    1
                ],
                "metallicFactor" : 0,
                "roughnessFactor" : 0.7418010830879211
            }
        },
        {
            "doubleSided" : true,
            "name" : "yellowbrt",
            "pbrMetallicRoughness" : {
                "baseColorFactor" : [
                    1,
                    0.7836999893188477,
                    0,
                    1
                ],
                "metallicFactor" : 0,
                "roughnessFactor" : 0.7418010830879211
            }
        },
        {
            "doubleSided" : true,
            "name" : "salonMat",
            "normalTexture" : {
                "index" : 4,
                "texCoord" : 0
            },
            "pbrMetallicRoughness" : {
                "baseColorTexture" : {
                    "index" : 5,
                    "texCoord" : 0
                },
                "metallicFactor" : 0,
                "roughnessFactor" : 0.5
            }
        }
    ],
    "meshes" : [
        {
            "name" : "house03",
            "primitives" : [
                {
                    "attributes" : {
                        "POSITION" : 0,
                        "NORMAL" : 1,
                        "TEXCOORD_0" : 2,
                        "JOINTS_0" : 3,
                        "WEIGHTS_0" : 4
                    },
                    "indices" : 5,
                    "material" : 0
                },
                {
                    "attributes" : {
                        "POSITION" : 6,
                        "NORMAL" : 7,
                        "TEXCOORD_0" : 8,
                        "JOINTS_0" : 9,
                        "WEIGHTS_0" : 10
                    },
                    "indices" : 11,
                    "material" : 1
                },
                {
                    "attributes" : {
                        "POSITION" : 12,
                        "NORMAL" : 13,
                        "TEXCOORD_0" : 14,
                        "JOINTS_0" : 15,
                        "WEIGHTS_0" : 16
                    },
                    "indices" : 17,
                    "material" : 2
                },
                {
                    "attributes" : {
                        "POSITION" : 18,
                        "NORMAL" : 19,
                        "TEXCOORD_0" : 20,
                        "JOINTS_0" : 21,
                        "WEIGHTS_0" : 22
                    },
                    "indices" : 23,
                    "material" : 3
                },
                {
                    "attributes" : {
                        "POSITION" : 24,
                        "NORMAL" : 25,
                        "TEXCOORD_0" : 26,
                        "JOINTS_0" : 27,
                        "WEIGHTS_0" : 28
                    },
                    "indices" : 29,
                    "material" : 4
                }
            ]
        },
        {
            "name" : "house03.001",
            "primitives" : [
                {
                    "attributes" : {
                        "POSITION" : 30,
                        "NORMAL" : 31,
                        "TEXCOORD_0" : 32
                    },
                    "indices" : 33,
                    "material" : 0
                }
            ]
        }
    ],
    "textures" : [
        {
            "source" : 0
        },
        {
            "source" : 1
        },
        {
            "source" : 2
        },
        {
            "source" : 3
        },
        {
            "source" : 4
        },
        {
            "source" : 5
        }
    ],
    "images" : [
        {
            "mimeType" : "image/png",
            "name" : "TexturesCom_MarbleFloorTiles2_1024_normal",
            "uri" : "TexturesCom_MarbleFloorTiles2_1024_normal.png"
        },
        {
            "mimeType" : "image/png",
            "name" : "TexturesCom_MarbleFloorTiles2_1024_diffuse",
            "uri" : "TexturesCom_MarbleFloorTiles2_1024_diffuse.png"
        },
        {
            "mimeType" : "image/png",
            "name" : "TexturesCom_MarbleFloorTiles2_1024_roughness",
            "uri" : "TexturesCom_MarbleFloorTiles2_1024_roughness.png"
        },
        {
            "mimeType" : "image/jpeg",
            "name" : "TexturesCom_WallpaperForties0078_seamless_S",
            "uri" : "TexturesCom_WallpaperForties0078_seamless_S.jpg"
        },
        {
            "mimeType" : "image/png",
            "name" : "TexturesCom_LargeMedievalBrick_1024_normal",
            "uri" : "TexturesCom_LargeMedievalBrick_1024_normal.png"
        },
        {
            "mimeType" : "image/png",
            "name" : "TexturesCom_LargeMedievalBrick_1024_albedo",
            "uri" : "TexturesCom_LargeMedievalBrick_1024_albedo.png"
        }
    ],
    "accessors" : [
        {
            "bufferView" : 0,
            "componentType" : 5126,
            "count" : 8,
            "max" : [
                200.79550170898438,
                2.0416797497091466e-07,
                120.53356170654297
            ],
            "min" : [
                -0.9045500159263611,
                -1.9637409423012286e-05,
                -1.2531741857528687
            ],
            "type" : "VEC3"
        },
        {
            "bufferView" : 1,
            "componentType" : 5126,
            "count" : 8,
            "type" : "VEC3"
        },
        {
            "bufferView" : 2,
            "componentType" : 5126,
            "count" : 8,
            "type" : "VEC2"
        },
        {
            "bufferView" : 3,
            "componentType" : 5123,
            "count" : 8,
            "type" : "VEC4"
        },
        {
            "bufferView" : 4,
            "componentType" : 5126,
            "count" : 8,
            "type" : "VEC4"
        },
        {
            "bufferView" : 5,
            "componentType" : 5123,
            "count" : 24,
            "type" : "SCALAR"
        },
        {
            "bufferView" : 6,
            "componentType" : 5126,
            "count" : 1669,
            "max" : [
                200.8955078125,
                25.0000057220459,
                120.44685363769531
            ],
            "min" : [
                -0.9045500159263611,
                -1.962328315130435e-05,
                -1.2531741857528687
            ],
            "type" : "VEC3"
        },
        {
            "bufferView" : 7,
            "componentType" : 5126,
            "count" : 1669,
            "type" : "VEC3"
        },
        {
            "bufferView" : 8,
            "componentType" : 5126,
            "count" : 1669,
            "type" : "VEC2"
        },
        {
            "bufferView" : 9,
            "componentType" : 5123,
            "count" : 1669,
            "type" : "VEC4"
        },
        {
            "bufferView" : 10,
            "componentType" : 5126,
            "count" : 1669,
            "type" : "VEC4"
        },
        {
            "bufferView" : 11,
            "componentType" : 5123,
            "count" : 3084,
            "type" : "SCALAR"
        },
        {
            "bufferView" : 12,
            "componentType" : 5126,
            "count" : 1301,
            "max" : [
                193.4273223876953,
                20.850004196166992,
                120.49571990966797
            ],
            "min" : [
                42.96818161010742,
                -1.9470686311251484e-05,
                5.101369857788086
            ],
            "type" : "VEC3"
        },
        {
            "bufferView" : 13,
            "componentType" : 5126,
            "count" : 1301,
            "type" : "VEC3"
        },
        {
            "bufferView" : 14,
            "componentType" : 5126,
            "count" : 1301,
            "type" : "VEC2"
        },
        {
            "bufferView" : 15,
            "componentType" : 5123,
            "count" : 1301,
            "type" : "VEC4"
        },
        {
            "bufferView" : 16,
            "componentType" : 5126,
            "count" : 1301,
            "type" : "VEC4"
        },
        {
            "bufferView" : 17,
            "componentType" : 5123,
            "count" : 3066,
            "type" : "SCALAR"
        },
        {
            "bufferView" : 18,
            "componentType" : 5126,
            "count" : 504,
            "max" : [
                106.18147277832031,
                10.144558906555176,
                120.53356170654297
            ],
            "min" : [
                104.77290344238281,
                9.906779289245605,
                117.82682037353516
            ],
            "type" : "VEC3"
        },
        {
            "bufferView" : 19,
            "componentType" : 5126,
            "count" : 504,
            "type" : "VEC3"
        },
        {
            "bufferView" : 20,
            "componentType" : 5126,
            "count" : 504,
            "type" : "VEC2"
        },
        {
            "bufferView" : 21,
            "componentType" : 5123,
            "count" : 504,
            "type" : "VEC4"
        },
        {
            "bufferView" : 22,
            "componentType" : 5126,
            "count" : 504,
            "type" : "VEC4"
        },
        {
            "bufferView" : 23,
            "componentType" : 5123,
            "count" : 2760,
            "type" : "SCALAR"
        },
        {
            "bufferView" : 24,
            "componentType" : 5126,
            "count" : 36,
            "max" : [
                79.39546966552734,
                24.999996185302734,
                118.94686126708984
            ],
            "min" : [
                20.79545783996582,
                -1.9378901924937963e-05,
                60.346839904785156
            ],
            "type" : "VEC3"
        },
        {
            "bufferView" : 25,
            "componentType" : 5126,
            "count" : 36,
            "type" : "VEC3"
        },
        {
            "bufferView" : 26,
            "componentType" : 5126,
            "count" : 36,
            "type" : "VEC2"
        },
        {
            "bufferView" : 27,
            "componentType" : 5123,
            "count" : 36,
            "type" : "VEC4"
        },
        {
            "bufferView" : 28,
            "componentType" : 5126,
            "count" : 36,
            "type" : "VEC4"
        },
        {
            "bufferView" : 29,
            "componentType" : 5123,
            "count" : 54,
            "type" : "SCALAR"
        },
        {
            "bufferView" : 30,
            "componentType" : 5126,
            "count" : 4,
            "max" : [
                199.3955078125,
                -2.392102516068917e-08,
                120.34685516357422
            ],
            "min" : [
                0.49545037746429443,
                -1.960699046321679e-05,
                0.14682620763778687
            ],
            "type" : "VEC3"
        },
        {
            "bufferView" : 31,
            "componentType" : 5126,
            "count" : 4,
            "type" : "VEC3"
        },
        {
            "bufferView" : 32,
            "componentType" : 5126,
            "count" : 4,
            "type" : "VEC2"
        },
        {
            "bufferView" : 33,
            "componentType" : 5123,
            "count" : 6,
            "type" : "SCALAR"
        }
    ],
    "bufferViews" : [
        {
            "buffer" : 0,
            "byteLength" : 96,
            "byteOffset" : 0
        },
        {
            "buffer" : 0,
            "byteLength" : 96,
            "byteOffset" : 96
        },
        {
            "buffer" : 0,
            "byteLength" : 64,
            "byteOffset" : 192
        },
        {
            "buffer" : 0,
            "byteLength" : 64,
            "byteOffset" : 256
        },
        {
            "buffer" : 0,
            "byteLength" : 128,
            "byteOffset" : 320
        },
        {
            "buffer" : 0,
            "byteLength" : 48,
            "byteOffset" : 448
        },
        {
            "buffer" : 0,
            "byteLength" : 20028,
            "byteOffset" : 496
        },
        {
            "buffer" : 0,
            "byteLength" : 20028,
            "byteOffset" : 20524
        },
        {
            "buffer" : 0,
            "byteLength" : 13352,
            "byteOffset" : 40552
        },
        {
            "buffer" : 0,
            "byteLength" : 13352,
            "byteOffset" : 53904
        },
        {
            "buffer" : 0,
            "byteLength" : 26704,
            "byteOffset" : 67256
        },
        {
            "buffer" : 0,
            "byteLength" : 6168,
            "byteOffset" : 93960
        },
        {
            "buffer" : 0,
            "byteLength" : 15612,
            "byteOffset" : 100128
        },
        {
            "buffer" : 0,
            "byteLength" : 15612,
            "byteOffset" : 115740
        },
        {
            "buffer" : 0,
            "byteLength" : 10408,
            "byteOffset" : 131352
        },
        {
            "buffer" : 0,
            "byteLength" : 10408,
            "byteOffset" : 141760
        },
        {
            "buffer" : 0,
            "byteLength" : 20816,
            "byteOffset" : 152168
        },
        {
            "buffer" : 0,
            "byteLength" : 6132,
            "byteOffset" : 172984
        },
        {
            "buffer" : 0,
            "byteLength" : 6048,
            "byteOffset" : 179116
        },
        {
            "buffer" : 0,
            "byteLength" : 6048,
            "byteOffset" : 185164
        },
        {
            "buffer" : 0,
            "byteLength" : 4032,
            "byteOffset" : 191212
        },
        {
            "buffer" : 0,
            "byteLength" : 4032,
            "byteOffset" : 195244
        },
        {
            "buffer" : 0,
            "byteLength" : 8064,
            "byteOffset" : 199276
        },
        {
            "buffer" : 0,
            "byteLength" : 5520,
            "byteOffset" : 207340
        },
        {
            "buffer" : 0,
            "byteLength" : 432,
            "byteOffset" : 212860
        },
        {
            "buffer" : 0,
            "byteLength" : 432,
            "byteOffset" : 213292
        },
        {
            "buffer" : 0,
            "byteLength" : 288,
            "byteOffset" : 213724
        },
        {
            "buffer" : 0,
            "byteLength" : 288,
            "byteOffset" : 214012
        },
        {
            "buffer" : 0,
            "byteLength" : 576,
            "byteOffset" : 214300
        },
        {
            "buffer" : 0,
            "byteLength" : 108,
            "byteOffset" : 214876
        },
        {
            "buffer" : 0,
            "byteLength" : 48,
            "byteOffset" : 214984
        },
        {
            "buffer" : 0,
            "byteLength" : 48,
            "byteOffset" : 215032
        },
        {
            "buffer" : 0,
            "byteLength" : 32,
            "byteOffset" : 215080
        },
        {
            "buffer" : 0,
            "byteLength" : 12,
            "byteOffset" : 215112
        }
    ],
    "buffers" : [
        {
            "byteLength" : 215124,
            "uri" : "house03.bin"
        }
    ]
}
