{
    "asset" : {
        "generator" : "Khronos glTF Blender I/O v1.0.5",
        "version" : "2.0"
    },
    "scene" : 0,
    "scenes" : [
        {
            "name" : "Scene",
            "nodes" : [
                0,
                1,
                2,
                3
            ]
        }
    ],
    "nodes" : [
        {
            "name" : "Light",
            "rotation" : [
                0.16907575726509094,
                0.7558803558349609,
                -0.27217137813568115,
                0.570947527885437
            ],
            "translation" : [
                4.076245307922363,
                5.903861999511719,
                -1.0054539442062378
            ]
        },
        {
            "name" : "Camera",
            "rotation" : [
                0.483536034822464,
                0.33687159419059753,
                -0.20870360732078552,
                0.7804827094078064
            ],
            "translation" : [
                7.358891487121582,
                4.958309173583984,
                6.925790786743164
            ]
        },
        {
            "mesh" : 0,
            "name" : "house03",
            "rotation" : [
                0.7071068286895752,
                0,
                0,
                0.7071067094802856
            ],
            "scale" : [
                0.10000002384185791,
                0.10000002384185791,
                0.10000002384185791
            ]
        },
        {
            "mesh" : 1,
            "name" : "ground",
            "rotation" : [
                0.7071068286895752,
                0,
                0,
                0.7071067094802856
            ],
            "scale" : [
                0.10000002384185791,
                0.10000002384185791,
                0.10000002384185791
            ]
        }
    ],
    "materials" : [
        {
            "doubleSided" : true,
            "name" : "ground_1",
            "normalTexture" : {
                "index" : 0,
                "texCoord" : 0
            },
            "pbrMetallicRoughness" : {
                "baseColorTexture" : {
                    "index" : 1,
                    "texCoord" : 0
                },
                "metallicFactor" : 0,
                "metallicRoughnessTexture" : {
                    "index" : 2,
                    "texCoord" : 0
                }
            }
        },
        {
            "doubleSided" : true,
            "name" : "hallMat",
            "pbrMetallicRoughness" : {
                "baseColorTexture" : {
                    "index" : 3,
                    "texCoord" : 0
                },
                "metallicFactor" : 0,
                "roughnessFactor" : 0.9666666388511658
            }
        },
        {
            "doubleSided" : true,
            "name" : "white",
            "pbrMetallicRoughness" : {
                "baseColorFactor" : [
                    1,
                    1,
                    1,
                    1
                ],
                "metallicFactor" : 0,
                "roughnessFactor" : 0.7418010830879211
            }
        },
        {
            "doubleSided" : true,
            "name" : "yellowbrt",
            "pbrMetallicRoughness" : {
                "baseColorFactor" : [
                    1,
                    0.7836999893188477,
                    0,
                    1
                ],
                "metallicFactor" : 0,
                "roughnessFactor" : 0.7418010830879211
            }
        },
        {
            "doubleSided" : true,
            "name" : "salonMat",
            "normalTexture" : {
                "index" : 4,
                "texCoord" : 0
            },
            "pbrMetallicRoughness" : {
                "baseColorTexture" : {
                    "index" : 5,
                    "texCoord" : 0
                },
                "metallicFactor" : 0,
                "roughnessFactor" : 0.5
            }
        }
    ],
    "meshes" : [
        {
            "name" : "house03",
            "primitives" : [
                {
                    "attributes" : {
                        "POSITION" : 0,
                        "NORMAL" : 1,
                        "TEXCOORD_0" : 2,
                        "JOINTS_0" : 3,
                        "WEIGHTS_0" : 4
                    },
                    "indices" : 5,
                    "material" : 0
                },
                {
                    "attributes" : {
                        "POSITION" : 6,
                        "NORMAL" : 7,
                        "TEXCOORD_0" : 8,
                        "JOINTS_0" : 9,
                        "WEIGHTS_0" : 10
                    },
                    "indices" : 11,
                    "material" : 1
                },
                {
                    "attributes" : {
                        "POSITION" : 12,
                        "NORMAL" : 13,
                        "TEXCOORD_0" : 14,
                        "JOINTS_0" : 15,
                        "WEIGHTS_0" : 16
                    },
                    "indices" : 17,
                    "material" : 2
                },
                {
                    "attributes" : {
                        "POSITION" : 18,
                        "NORMAL" : 19,
                        "TEXCOORD_0" : 20,
                        "JOINTS_0" : 21,
                        "WEIGHTS_0" : 22
                    },
                    "indices" : 23,
                    "material" : 3
                },
                {
                    "attributes" : {
                        "POSITION" : 24,
                        "NORMAL" : 25,
                        "TEXCOORD_0" : 26,
                        "JOINTS_0" : 27,
                        "WEIGHTS_0" : 28
                    },
                    "indices" : 29,
                    "material" : 4
                }
            ]
        },
        {
            "name" : "house03.001",
            "primitives" : [
                {
                    "attributes" : {
                        "POSITION" : 30,
                        "NORMAL" : 31,
                        "TEXCOORD_0" : 32
                    },
                    "indices" : 33,
                    "material" : 0
                }
            ]
        }
    ],
    "textures" : [
        {
            "source" : 0
        },
        {
            "source" : 1
        },
        {
            "source" : 2
        },
        {
            "source" : 3
        },
        {
            "source" : 4
        },
        {
            "source" : 5
        }
    ],
    "images" : [
        {
            "mimeType" : "image/png",
            "name" : "TexturesCom_MarbleFloorTiles2_1024_normal",
            "uri" : "TexturesCom_MarbleFloorTiles2_1024_normal.png"
        },
        {
            "mimeType" : "image/png",
            "name" : "TexturesCom_MarbleFloorTiles2_1024_diffuse",
            "uri" : "TexturesCom_MarbleFloorTiles2_1024_diffuse.png"
        },
        {
            "mimeType" : "image/png",
            "name" : "TexturesCom_MarbleFloorTiles2_1024_roughness",
            "uri" : "TexturesCom_MarbleFloorTiles2_1024_roughness.png"
        },
        {
            "mimeType" : "image/jpeg",
            "name" : "TexturesCom_WallpaperForties0078_seamless_S",
            "uri" : "TexturesCom_WallpaperForties0078_seamless_S.jpg"
        },
        {
            "mimeType" : "image/png",
            "name" : "TexturesCom_LargeMedievalBrick_1024_normal",
            "uri" : "TexturesCom_LargeMedievalBrick_1024_normal.png"
        },
        {
            "mimeType" : "image/png",
            "name" : "TexturesCom_LargeMedievalBrick_1024_albedo",
            "uri" : "TexturesCom_LargeMedievalBrick_1024_albedo.png"
        }
    ],
    "accessors" : [
        {
            "bufferView" : 0,
            "componentType" : 5126,
            "count" : 8,
            "max" : [
                2007.95458984375,
                1205.3353271484375,
                0
            ],
            "min" : [
                -9.04549789428711,
                -12.53173828125,
                0
            ],
            "type" : "VEC3"
        },
        {
            "bufferView" : 1,
            "componentType" : 5126,
            "count" : 8,
            "type" : "VEC3"
        },
        {
            "bufferView" : 2,
            "componentType" : 5126,
            "count" : 8,
            "type" : "VEC2"
        },
        {
            "bufferView" : 3,
            "componentType" : 5123,
            "count" : 8,
            "type" : "VEC4"
        },
        {
            "bufferView" : 4,
            "componentType" : 5126,
            "count" : 8,
            "type" : "VEC4"
        },
        {
            "bufferView" : 5,
            "componentType" : 5123,
            "count" : 24,
            "type" : "SCALAR"
        },
        {
            "bufferView" : 6,
            "componentType" : 5126,
            "count" : 1443,
            "max" : [
                2008.95458984375,
                1204.46826171875,
                0
            ],
            "min" : [
                -9.04549789428711,
                -12.53173828125,
                -250
            ],
            "type" : "VEC3"
        },
        {
            "bufferView" : 7,
            "componentType" : 5126,
            "count" : 1443,
            "type" : "VEC3"
        },
        {
            "bufferView" : 8,
            "componentType" : 5126,
            "count" : 1443,
            "type" : "VEC2"
        },
        {
            "bufferView" : 9,
            "componentType" : 5123,
            "count" : 1443,
            "type" : "VEC4"
        },
        {
            "bufferView" : 10,
            "componentType" : 5126,
            "count" : 1443,
            "type" : "VEC4"
        },
        {
            "bufferView" : 11,
            "componentType" : 5123,
            "count" : 3084,
            "type" : "SCALAR"
        },
        {
            "bufferView" : 12,
            "componentType" : 5126,
            "count" : 1290,
            "max" : [
                1934.272705078125,
                1204.9569091796875,
                0
            ],
            "min" : [
                429.68170166015625,
                51.01368713378906,
                -208.5
            ],
            "type" : "VEC3"
        },
        {
            "bufferView" : 13,
            "componentType" : 5126,
            "count" : 1290,
            "type" : "VEC3"
        },
        {
            "bufferView" : 14,
            "componentType" : 5126,
            "count" : 1290,
            "type" : "VEC2"
        },
        {
            "bufferView" : 15,
            "componentType" : 5123,
            "count" : 1290,
            "type" : "VEC4"
        },
        {
            "bufferView" : 16,
            "componentType" : 5126,
            "count" : 1290,
            "type" : "VEC4"
        },
        {
            "bufferView" : 17,
            "componentType" : 5123,
            "count" : 3012,
            "type" : "SCALAR"
        },
        {
            "bufferView" : 18,
            "componentType" : 5126,
            "count" : 504,
            "max" : [
                1061.814453125,
                1205.3353271484375,
                -99.0679702758789
            ],
            "min" : [
                1047.728759765625,
                1178.2679443359375,
                -101.44575500488281
            ],
            "type" : "VEC3"
        },
        {
            "bufferView" : 19,
            "componentType" : 5126,
            "count" : 504,
            "type" : "VEC3"
        },
        {
            "bufferView" : 20,
            "componentType" : 5126,
            "count" : 504,
            "type" : "VEC2"
        },
        {
            "bufferView" : 21,
            "componentType" : 5123,
            "count" : 504,
            "type" : "VEC4"
        },
        {
            "bufferView" : 22,
            "componentType" : 5126,
            "count" : 504,
            "type" : "VEC4"
        },
        {
            "bufferView" : 23,
            "componentType" : 5123,
            "count" : 2760,
            "type" : "SCALAR"
        },
        {
            "bufferView" : 24,
            "componentType" : 5126,
            "count" : 36,
            "max" : [
                793.9545288085938,
                1189.46826171875,
                0
            ],
            "min" : [
                207.95452880859375,
                603.46826171875,
                -250
            ],
            "type" : "VEC3"
        },
        {
            "bufferView" : 25,
            "componentType" : 5126,
            "count" : 36,
            "type" : "VEC3"
        },
        {
            "bufferView" : 26,
            "componentType" : 5126,
            "count" : 36,
            "type" : "VEC2"
        },
        {
            "bufferView" : 27,
            "componentType" : 5123,
            "count" : 36,
            "type" : "VEC4"
        },
        {
            "bufferView" : 28,
            "componentType" : 5126,
            "count" : 36,
            "type" : "VEC4"
        },
        {
            "bufferView" : 29,
            "componentType" : 5123,
            "count" : 54,
            "type" : "SCALAR"
        },
        {
            "bufferView" : 30,
            "componentType" : 5126,
            "count" : 4,
            "max" : [
                1993.95458984375,
                1203.46826171875,
                0
            ],
            "min" : [
                4.954502582550049,
                1.46826171875,
                0
            ],
            "type" : "VEC3"
        },
        {
            "bufferView" : 31,
            "componentType" : 5126,
            "count" : 4,
            "type" : "VEC3"
        },
        {
            "bufferView" : 32,
            "componentType" : 5126,
            "count" : 4,
            "type" : "VEC2"
        },
        {
            "bufferView" : 33,
            "componentType" : 5123,
            "count" : 6,
            "type" : "SCALAR"
        }
    ],
    "bufferViews" : [
        {
            "buffer" : 0,
            "byteLength" : 96,
            "byteOffset" : 0
        },
        {
            "buffer" : 0,
            "byteLength" : 96,
            "byteOffset" : 96
        },
        {
            "buffer" : 0,
            "byteLength" : 64,
            "byteOffset" : 192
        },
        {
            "buffer" : 0,
            "byteLength" : 64,
            "byteOffset" : 256
        },
        {
            "buffer" : 0,
            "byteLength" : 128,
            "byteOffset" : 320
        },
        {
            "buffer" : 0,
            "byteLength" : 48,
            "byteOffset" : 448
        },
        {
            "buffer" : 0,
            "byteLength" : 17316,
            "byteOffset" : 496
        },
        {
            "buffer" : 0,
            "byteLength" : 17316,
            "byteOffset" : 17812
        },
        {
            "buffer" : 0,
            "byteLength" : 11544,
            "byteOffset" : 35128
        },
        {
            "buffer" : 0,
            "byteLength" : 11544,
            "byteOffset" : 46672
        },
        {
            "buffer" : 0,
            "byteLength" : 23088,
            "byteOffset" : 58216
        },
        {
            "buffer" : 0,
            "byteLength" : 6168,
            "byteOffset" : 81304
        },
        {
            "buffer" : 0,
            "byteLength" : 15480,
            "byteOffset" : 87472
        },
        {
            "buffer" : 0,
            "byteLength" : 15480,
            "byteOffset" : 102952
        },
        {
            "buffer" : 0,
            "byteLength" : 10320,
            "byteOffset" : 118432
        },
        {
            "buffer" : 0,
            "byteLength" : 10320,
            "byteOffset" : 128752
        },
        {
            "buffer" : 0,
            "byteLength" : 20640,
            "byteOffset" : 139072
        },
        {
            "buffer" : 0,
            "byteLength" : 6024,
            "byteOffset" : 159712
        },
        {
            "buffer" : 0,
            "byteLength" : 6048,
            "byteOffset" : 165736
        },
        {
            "buffer" : 0,
            "byteLength" : 6048,
            "byteOffset" : 171784
        },
        {
            "buffer" : 0,
            "byteLength" : 4032,
            "byteOffset" : 177832
        },
        {
            "buffer" : 0,
            "byteLength" : 4032,
            "byteOffset" : 181864
        },
        {
            "buffer" : 0,
            "byteLength" : 8064,
            "byteOffset" : 185896
        },
        {
            "buffer" : 0,
            "byteLength" : 5520,
            "byteOffset" : 193960
        },
        {
            "buffer" : 0,
            "byteLength" : 432,
            "byteOffset" : 199480
        },
        {
            "buffer" : 0,
            "byteLength" : 432,
            "byteOffset" : 199912
        },
        {
            "buffer" : 0,
            "byteLength" : 288,
            "byteOffset" : 200344
        },
        {
            "buffer" : 0,
            "byteLength" : 288,
            "byteOffset" : 200632
        },
        {
            "buffer" : 0,
            "byteLength" : 576,
            "byteOffset" : 200920
        },
        {
            "buffer" : 0,
            "byteLength" : 108,
            "byteOffset" : 201496
        },
        {
            "buffer" : 0,
            "byteLength" : 48,
            "byteOffset" : 201604
        },
        {
            "buffer" : 0,
            "byteLength" : 48,
            "byteOffset" : 201652
        },
        {
            "buffer" : 0,
            "byteLength" : 32,
            "byteOffset" : 201700
        },
        {
            "buffer" : 0,
            "byteLength" : 12,
            "byteOffset" : 201732
        }
    ],
    "buffers" : [
        {
            "byteLength" : 201744,
            "uri" : "house03.bin"
        }
    ]
}
